<svg id="svg" version="1.1" xmlns="http://www.w3.org/2000/svg" xmlns:xlink="http://www.w3.org/1999/xlink" width="400" height="275.2212389380531" viewBox="0, 0, 400,275.2212389380531"><g id="svgg"><path id="path0" d="M125.946 27.395 C 96.398 29.894,75.259 41.423,60.586 63.042 C 51.259 76.784,42.063 99.438,39.186 115.760 C 38.237 121.143,38.051 135.210,38.873 139.396 L 39.298 141.559 37.163 146.003 C 18.135 185.615,27.764 219.513,62.354 234.685 C 63.262 235.084,64.412 235.588,64.910 235.805 C 65.407 236.023,66.026 236.205,66.286 236.210 C 66.546 236.215,66.999 236.400,67.293 236.623 C 67.587 236.845,68.106 237.027,68.447 237.027 C 68.787 237.027,69.142 237.151,69.236 237.302 C 69.330 237.454,69.678 237.576,70.009 237.573 C 70.489 237.570,70.529 237.516,70.208 237.313 C 69.985 237.172,69.889 236.970,69.994 236.865 C 70.100 236.759,70.375 236.830,70.606 237.021 C 71.129 237.456,71.138 237.061,70.620 236.377 C 70.319 235.980,70.303 235.752,70.550 235.358 C 70.924 234.758,70.681 234.411,70.055 234.651 C 69.757 234.766,69.669 235.003,69.786 235.374 C 69.911 235.766,69.836 235.926,69.530 235.926 C 69.293 235.926,69.098 235.750,69.098 235.536 C 69.098 235.321,68.952 235.097,68.774 235.037 C 68.592 234.977,68.528 234.724,68.627 234.464 C 68.833 233.927,69.527 233.884,71.607 234.282 C 72.423 234.438,73.491 234.618,73.980 234.682 C 81.629 235.681,84.106 235.938,88.782 236.223 C 96.216 236.674,105.679 236.364,114.109 235.394 C 119.099 234.819,121.296 234.476,121.817 234.192 C 122.120 234.027,122.698 233.924,123.103 233.964 C 124.008 234.052,128.636 233.156,128.415 232.935 C 128.327 232.847,127.085 232.810,125.655 232.852 C 124.226 232.895,122.915 232.843,122.743 232.737 C 122.373 232.508,123.480 231.821,124.242 231.806 C 124.516 231.801,124.668 231.680,124.580 231.538 C 124.492 231.396,124.621 231.167,124.866 231.030 C 125.280 230.799,125.483 229.817,125.250 229.181 C 125.009 228.523,125.598 220.364,125.901 220.167 C 126.077 220.053,125.819 220.037,125.327 220.131 C 124.718 220.248,124.432 220.197,124.432 219.971 C 124.432 219.731,124.943 219.680,126.290 219.787 C 127.312 219.868,127.901 219.866,127.598 219.782 C 126.603 219.507,126.483 219.133,127.389 219.133 C 127.865 219.133,128.332 219.259,128.427 219.413 C 128.522 219.566,128.717 219.620,128.860 219.531 C 129.004 219.443,129.050 219.255,128.963 219.114 C 128.876 218.973,129.082 218.858,129.421 218.858 C 129.759 218.858,130.417 218.738,130.882 218.593 C 131.347 218.447,132.719 218.125,133.930 217.877 C 135.141 217.630,136.380 217.330,136.683 217.212 C 136.986 217.094,137.853 216.870,138.610 216.714 C 141.186 216.184,144.940 215.242,145.365 215.019 C 145.598 214.896,146.310 214.708,146.947 214.601 C 147.583 214.493,148.174 214.292,148.260 214.154 C 148.345 214.015,148.663 213.902,148.967 213.902 C 149.487 213.902,151.720 213.286,152.925 212.809 C 154.696 212.109,155.830 211.734,157.043 211.445 C 157.794 211.267,158.785 210.950,159.245 210.741 C 159.706 210.533,160.764 210.147,161.597 209.885 C 162.429 209.623,163.482 209.251,163.937 209.059 C 164.391 208.867,165.506 208.447,166.414 208.125 C 167.323 207.803,169.305 207.038,170.819 206.425 C 172.333 205.812,174.399 205.021,175.411 204.667 C 176.422 204.312,177.779 203.753,178.426 203.423 C 179.073 203.093,180.227 202.603,180.992 202.335 C 182.270 201.887,183.665 201.262,189.401 198.569 C 192.623 197.056,201.271 192.672,201.514 192.429 C 201.590 192.353,202.209 192.010,202.891 191.667 C 203.572 191.323,204.873 190.627,205.781 190.121 C 206.690 189.614,208.176 188.796,209.085 188.302 C 209.993 187.808,211.046 187.190,211.425 186.928 C 211.803 186.666,212.732 186.114,213.489 185.700 C 217.963 183.258,222.698 180.145,222.704 179.643 C 222.717 178.734,225.087 172.049,226.723 168.311 C 227.577 166.360,228.953 163.090,229.780 161.046 C 233.802 151.107,239.301 141.776,241.137 141.776 C 242.050 141.776,244.992 145.428,249.676 152.374 C 251.514 155.100,253.125 157.330,253.256 157.330 C 253.715 157.330,257.740 153.906,260.184 151.436 C 260.731 150.883,261.986 149.708,262.973 148.826 L 264.767 147.221 262.922 144.430 C 259.411 139.119,253.106 128.431,249.340 121.404 C 248.081 119.055,247.620 118.440,246.882 118.124 C 246.009 117.750,243.006 115.915,241.303 114.716 C 239.777 113.642,235.055 108.886,233.905 107.264 C 231.564 103.966,229.319 99.915,229.319 98.991 C 229.319 98.788,229.146 98.479,228.934 98.303 C 228.300 97.777,226.765 92.545,226.399 89.662 C 226.299 88.875,226.117 88.104,225.995 87.948 C 225.873 87.792,225.736 85.716,225.691 83.335 L 225.610 79.006 223.679 76.308 C 218.880 69.601,214.240 64.021,208.717 58.314 C 205.255 54.736,205.064 54.395,206.397 54.165 C 206.815 54.093,208.334 53.723,209.773 53.341 C 211.211 52.960,213.875 52.317,215.692 51.912 C 217.509 51.508,219.429 51.065,219.959 50.928 C 220.489 50.790,221.758 50.594,222.780 50.490 C 223.802 50.387,224.639 50.196,224.639 50.065 C 224.639 49.935,225.103 49.820,225.671 49.810 C 226.635 49.794,226.658 49.775,226.020 49.520 C 225.559 49.337,225.128 49.342,224.699 49.538 C 223.891 49.906,222.161 49.916,222.161 49.553 C 222.161 49.401,221.975 49.277,221.748 49.277 C 220.875 49.277,221.388 48.789,222.437 48.621 C 223.712 48.417,224.015 46.851,222.849 46.494 C 222.319 46.331,222.318 46.317,222.817 46.106 C 223.121 45.977,223.547 46.020,223.849 46.208 C 224.333 46.510,224.363 46.415,224.363 44.616 C 224.363 43.564,224.240 42.626,224.088 42.533 C 223.937 42.439,223.813 41.627,223.813 40.727 C 223.813 39.251,223.757 39.092,223.236 39.092 C 222.897 39.092,222.603 38.871,222.520 38.556 C 222.443 38.262,222.114 37.969,221.789 37.906 C 221.464 37.842,221.709 37.773,222.334 37.753 C 223.678 37.708,224.567 36.963,223.583 36.706 C 222.781 36.496,222.833 36.230,223.744 35.875 C 224.342 35.643,223.914 35.598,221.699 35.661 C 210.630 35.976,200.097 37.158,189.783 39.243 C 185.473 40.114,185.607 40.126,183.111 38.686 C 167.865 29.892,146.445 25.661,125.946 27.395 M228.152 35.707 C 228.494 35.773,228.990 35.771,229.253 35.702 C 229.516 35.633,229.236 35.579,228.630 35.582 C 228.025 35.585,227.809 35.642,228.152 35.707 M264.625 41.623 C 264.666 41.818,264.302 41.982,263.730 42.026 C 257.725 42.492,247.493 45.266,246.983 46.566 C 246.933 46.694,246.676 46.800,246.412 46.800 C 246.148 46.800,245.641 47.109,245.286 47.488 C 244.344 48.491,245.159 48.405,247.297 47.275 C 252.245 44.661,258.552 42.988,264.556 42.696 C 267.869 42.536,268.694 41.856,265.588 41.846 C 265.323 41.845,265.107 41.721,265.107 41.569 C 265.107 41.418,264.983 41.294,264.831 41.294 C 264.680 41.294,264.587 41.442,264.625 41.623 M239.504 47.933 C 238.923 48.036,239.632 48.116,241.294 48.136 C 243.203 48.158,243.920 48.084,243.634 47.894 C 243.209 47.612,241.207 47.631,239.504 47.933 M147.540 48.383 C 148.891 49.069,148.867 49.370,147.337 50.900 C 145.618 52.619,144.194 52.946,142.220 52.072 C 140.804 51.446,140.772 51.371,141.379 50.152 C 142.384 48.138,145.371 47.280,147.540 48.383 M236.545 48.366 C 236.810 48.435,237.244 48.435,237.509 48.366 C 237.774 48.297,237.557 48.240,237.027 48.240 C 236.497 48.240,236.280 48.297,236.545 48.366 M232.003 48.921 C 232.343 48.987,232.901 48.987,233.242 48.921 C 233.582 48.855,233.304 48.802,232.622 48.802 C 231.941 48.802,231.662 48.855,232.003 48.921 M169.290 57.703 C 170.675 58.868,170.786 59.297,169.959 60.279 C 168.120 62.465,164.959 62.557,163.020 60.481 C 160.929 58.242,166.825 55.629,169.290 57.703 M116.105 60.463 C 116.869 60.667,116.898 61.394,116.202 62.926 C 114.959 65.662,110.392 66.964,110.392 64.582 C 110.392 62.035,113.530 59.772,116.105 60.463 M189.580 66.207 C 191.535 67.024,192.875 69.251,191.996 70.222 C 190.104 72.313,186.005 71.635,184.583 68.995 C 183.441 66.875,186.754 65.027,189.580 66.207 M138.068 69.773 C 140.582 70.823,137.960 74.879,134.636 75.084 C 131.883 75.253,131.047 74.247,132.112 72.047 C 133.200 69.799,135.777 68.815,138.068 69.773 M84.515 74.219 C 84.515 76.554,82.759 78.734,80.877 78.734 C 78.870 78.734,79.986 74.998,82.450 73.468 C 83.940 72.542,84.515 72.751,84.515 74.219 M158.828 78.729 C 161.307 79.440,161.832 80.857,160.399 82.964 C 158.427 85.862,152.099 84.868,153.017 81.805 C 153.760 79.326,156.272 77.996,158.828 78.729 M106.974 83.027 C 107.396 85.275,105.717 87.750,103.369 88.341 C 101.654 88.773,101.308 88.475,101.308 86.567 C 101.308 83.251,106.417 80.059,106.974 83.027 M305.468 86.475 C 305.389 86.987,305.196 88.202,305.041 89.177 C 304.740 91.063,304.779 91.275,305.385 91.042 C 305.865 90.858,306.308 86.240,305.887 85.818 C 305.705 85.637,305.564 85.858,305.468 86.475 M181.373 88.337 C 184.188 90.342,183.597 93.262,180.190 94.183 C 177.146 95.006,173.286 91.547,174.893 89.437 C 176.365 87.503,179.463 86.977,181.373 88.337 M129.043 91.621 C 130.751 93.762,127.762 98.004,124.546 98.004 C 120.950 98.004,122.228 91.811,125.965 91.129 C 127.358 90.875,128.607 91.075,129.043 91.621 M75.341 95.567 C 75.618 98.224,72.349 101.805,71.545 99.725 C 70.813 97.831,71.653 95.476,73.511 94.211 C 74.665 93.426,75.156 93.790,75.341 95.567 M201.259 96.773 C 203.968 97.728,205.506 101.158,204.037 102.971 C 203.288 103.897,200.902 104.046,199.369 103.264 C 196.819 101.963,195.765 98.007,197.729 97.105 C 199.626 96.234,199.711 96.226,201.259 96.773 M150.320 100.551 C 153.048 101.926,151.632 106.341,148.125 107.391 C 144.067 108.607,142.054 104.296,145.261 101.255 C 146.786 99.808,148.402 99.583,150.320 100.551 M97.330 103.639 C 98.424 106.258,96.849 109.481,94.217 110.007 C 93.259 110.199,92.498 108.976,92.498 107.245 C 92.498 103.991,96.294 101.158,97.330 103.639 M172.005 109.894 C 175.571 112.098,173.803 116.999,169.443 116.999 C 166.381 116.999,164.236 114.406,165.279 111.966 C 166.422 109.295,169.500 108.346,172.005 109.894 M118.986 111.975 C 121.444 114.793,119.338 119.752,115.684 119.752 C 114.243 119.752,113.219 116.642,113.989 114.608 C 114.801 112.467,117.962 110.801,118.986 111.975 M65.280 116.793 C 65.873 118.198,65.692 120.054,64.837 121.346 C 63.594 123.224,62.852 123.084,62.182 120.848 C 61.371 118.143,64.256 114.367,65.280 116.793 M192.706 118.652 C 196.417 120.545,195.850 126.651,191.966 126.629 C 186.357 126.596,185.125 118.178,190.720 118.111 C 191.218 118.105,192.112 118.349,192.706 118.652 M140.918 121.028 C 144.011 123.194,142.321 128.656,138.359 129.299 C 136.728 129.564,134.893 127.401,134.893 125.213 C 134.893 122.272,138.810 119.551,140.918 121.028 M87.271 125.602 C 88.476 127.577,88.306 129.672,86.807 131.331 C 85.311 132.987,83.775 132.132,83.273 129.363 C 82.745 126.454,85.951 123.438,87.271 125.602 M213.717 127.561 C 216.695 128.805,217.401 132.751,215.040 134.953 C 211.512 138.244,207.486 131.921,210.784 128.270 C 211.843 127.098,212.329 126.981,213.717 127.561 M163.344 130.575 C 165.793 132.444,165.186 136.940,162.298 138.310 C 160.183 139.313,157.933 138.543,156.719 136.399 C 154.380 132.269,159.576 127.702,163.344 130.575 M108.929 134.412 C 110.107 135.657,110.392 136.313,110.392 137.784 C 110.392 139.611,108.800 142.051,107.606 142.051 C 106.905 142.051,105.418 140.695,104.987 139.664 C 103.540 136.202,106.673 132.028,108.929 134.412 M184.354 139.473 C 188.197 141.965,186.532 147.835,181.982 147.831 C 177.308 147.827,176.289 141.434,180.611 139.230 C 181.933 138.556,183.051 138.629,184.354 139.473 M130.948 143.582 C 133.933 145.858,132.818 151.861,129.510 151.324 C 125.787 150.720,124.534 145.795,127.473 143.321 C 128.555 142.411,129.506 142.482,130.948 143.582 M77.564 148.483 C 78.751 150.260,78.690 152.481,77.413 153.957 C 76.047 155.538,73.471 151.553,74.307 149.153 C 75.195 146.605,76.174 146.403,77.564 148.483 M206.468 149.250 C 208.309 151.176,208.059 153.782,205.852 155.671 C 203.326 157.833,200.899 157.067,200.311 153.920 C 199.616 150.207,204.118 146.792,206.468 149.250 M293.474 149.460 C 293.305 149.776,293.282 150.034,293.423 150.034 C 293.706 150.034,294.096 149.201,293.904 149.008 C 293.837 148.941,293.643 149.144,293.474 149.460 M153.153 152.975 C 155.924 154.749,155.970 159.039,153.231 160.086 C 149.461 161.525,145.815 157.786,147.381 154.086 C 148.301 151.913,150.756 151.440,153.153 152.975 M279.051 156.524 C 278.619 157.043,278.340 157.467,278.429 157.467 C 278.598 157.467,280.248 155.807,280.248 155.637 C 280.248 155.322,279.732 155.704,279.051 156.524 M99.327 157.223 C 100.844 158.706,101.186 161.368,100.077 163.060 C 98.742 165.097,95.530 162.544,95.528 159.445 C 95.525 156.063,97.161 155.106,99.327 157.223 M289.332 156.641 C 288.535 157.761,288.768 157.993,289.583 156.892 C 289.926 156.427,290.147 155.988,290.075 155.916 C 290.002 155.843,289.668 156.170,289.332 156.641 M279.697 157.031 C 279.697 157.271,279.893 157.467,280.133 157.467 C 280.619 157.467,280.535 156.875,280.024 156.705 C 279.844 156.645,279.697 156.792,279.697 157.031 M279.061 157.920 C 278.682 158.299,278.879 158.883,279.353 158.791 C 279.618 158.740,279.835 158.525,279.835 158.312 C 279.835 157.878,279.349 157.632,279.061 157.920 M287.390 158.323 C 287.178 158.718,287.216 159.010,287.538 159.468 L 287.971 160.083 287.895 159.394 C 287.838 158.882,287.942 158.716,288.300 158.744 C 288.968 158.797,288.907 158.115,288.228 157.937 C 287.860 157.841,287.578 157.971,287.390 158.323 M275.981 160.250 C 259.618 179.294,240.660 195.081,217.396 209.035 C 214.700 210.652,212.457 211.975,212.412 211.975 C 212.367 211.975,211.228 212.612,209.881 213.390 C 193.874 222.636,171.140 231.788,151.141 237.034 L 149.907 237.358 150.611 237.726 C 154.908 239.978,168.509 241.094,177.564 239.938 C 202.525 236.751,228.691 223.427,253.251 201.397 L 256.949 198.080 263.023 198.087 C 272.389 198.098,280.044 199.479,286.804 202.377 C 288.367 203.047,288.315 203.101,290.013 199.036 C 291.666 195.078,295.765 185.515,297.433 181.722 C 298.126 180.148,298.692 178.785,298.692 178.693 C 298.692 178.600,297.485 177.938,296.008 177.222 C 291.514 175.039,286.676 171.958,283.443 169.218 L 282.372 168.310 283.168 167.087 C 283.606 166.414,284.057 165.822,284.171 165.772 C 284.284 165.721,284.377 165.520,284.377 165.324 C 284.377 165.128,284.550 164.825,284.760 164.650 C 285.273 164.224,285.468 163.396,285.164 162.935 C 284.967 162.637,284.804 162.694,284.367 163.215 C 283.998 163.656,283.905 163.975,284.084 164.190 C 284.264 164.407,284.185 164.613,283.837 164.830 C 283.279 165.178,283.001 164.828,283.001 163.777 C 283.001 163.486,282.842 163.248,282.649 163.248 C 282.254 163.248,281.349 162.288,281.349 161.869 C 281.349 161.442,280.078 161.550,279.697 162.010 C 279.286 162.506,278.283 162.550,277.825 162.092 C 277.333 161.600,277.425 161.129,278.045 160.966 C 278.652 160.808,278.751 160.114,278.328 158.999 C 277.955 158.020,277.847 158.078,275.981 160.250 M284.578 159.756 C 284.381 160.292,284.660 160.751,285.083 160.588 C 285.301 160.505,285.478 160.277,285.478 160.083 C 285.478 159.611,284.731 159.340,284.578 159.756 M277.495 159.899 C 277.495 160.258,277.168 160.496,276.901 160.331 C 276.617 160.155,276.862 159.670,277.236 159.670 C 277.378 159.670,277.495 159.773,277.495 159.899 M283.487 161.996 C 283.416 162.367,283.494 162.722,283.661 162.786 C 283.831 162.852,283.989 162.556,284.022 162.112 C 284.092 161.149,283.666 161.056,283.487 161.996 M174.997 162.171 C 177.679 163.469,178.073 166.007,175.921 168.111 C 173.978 170.010,171.071 169.847,169.336 167.741 C 166.553 164.366,170.833 160.155,174.997 162.171 M274.841 163.386 C 274.674 163.823,274.191 163.959,274.191 163.570 C 274.191 163.279,274.492 162.973,274.779 162.973 C 274.901 162.973,274.929 163.159,274.841 163.386 M280.333 165.153 C 280.455 165.165,280.487 165.287,280.403 165.423 C 280.283 165.617,279.025 165.641,278.045 165.467 C 277.970 165.453,278.094 165.322,278.321 165.175 C 278.548 165.029,279.043 164.958,279.422 165.019 C 279.800 165.080,280.210 165.140,280.333 165.153 M120.875 166.077 C 123.926 168.133,123.818 173.652,120.739 173.004 C 118.107 172.451,116.724 170.912,116.724 168.539 C 116.724 165.549,118.515 164.486,120.875 166.077 M281.431 167.937 C 281.509 168.235,281.505 168.479,281.422 168.479 C 281.167 168.479,280.541 167.536,280.532 167.138 C 280.519 166.590,281.248 167.238,281.431 167.937 M50.203 169.993 C 50.290 170.220,51.308 171.833,52.465 173.579 C 66.438 194.649,84.992 209.315,106.676 216.427 C 110.168 217.572,117.271 219.407,118.224 219.410 C 118.534 219.411,119.144 219.597,119.577 219.823 C 120.011 220.049,120.816 220.246,121.367 220.261 C 122.899 220.303,123.884 220.649,123.244 220.921 C 122.959 221.042,122.475 220.989,122.119 220.799 C 121.377 220.402,118.522 220.523,114.109 221.139 C 105.324 222.364,94.441 223.697,90.021 224.088 C 88.279 224.243,86.599 224.426,86.286 224.496 C 85.106 224.761,70.244 225.445,68.135 225.332 C 66.924 225.267,64.508 225.137,62.767 225.043 C 50.584 224.384,41.735 220.764,37.933 214.881 C 33.625 208.217,35.373 191.603,41.626 179.766 C 44.865 173.636,49.551 168.295,50.203 169.993 M197.386 171.646 C 199.412 172.693,198.380 176.946,195.843 178.006 C 193.883 178.825,190.976 178.036,190.612 176.587 C 189.757 173.181,194.154 169.974,197.386 171.646 M143.006 175.439 C 145.712 176.971,146.514 180.487,144.390 181.500 C 141.304 182.972,137.922 180.818,137.922 177.381 C 137.922 174.973,140.467 174.001,143.006 175.439 M88.342 179.064 C 90.282 180.067,91.388 182.254,91.000 184.323 C 90.466 187.167,86.304 184.220,86.304 180.998 C 86.304 178.886,86.901 178.319,88.342 179.064 M308.033 185.341 C 306.522 189.215,306.092 190.341,305.849 191.053 C 305.720 191.432,305.296 192.596,304.907 193.640 C 304.158 195.647,304.032 196.185,304.498 195.385 C 304.749 194.953,304.844 194.943,305.347 195.295 C 305.658 195.513,306.065 195.633,306.250 195.562 C 306.436 195.491,306.745 195.623,306.938 195.855 C 307.131 196.087,307.406 196.205,307.550 196.116 C 307.694 196.027,308.044 196.165,308.329 196.422 C 308.614 196.680,309.008 196.836,309.206 196.769 C 309.404 196.703,309.988 196.885,310.504 197.173 C 312.050 198.040,313.591 196.894,319.111 190.778 C 321.660 187.953,322.043 188.452,315.014 185.447 C 308.322 182.587,309.102 182.599,308.033 185.341 M165.534 185.083 C 167.839 186.478,168.243 188.254,166.594 189.744 C 164.103 191.994,159.826 190.744,159.235 187.593 C 158.784 185.190,162.962 183.526,165.534 185.083 M110.329 188.451 C 114.175 190.058,114.776 195.537,110.981 194.400 C 108.836 193.758,107.603 192.190,107.571 190.066 C 107.541 188.081,108.333 187.617,110.329 188.451 M323.286 190.711 C 322.493 192.082,319.472 196.147,317.771 198.131 C 315.943 200.265,315.813 200.503,316.701 200.098 C 317.086 199.922,317.476 199.543,317.568 199.255 C 317.791 198.553,318.513 199.122,318.513 200.001 C 318.513 200.665,318.666 200.737,323.246 202.238 C 324.543 202.664,325.396 203.098,325.448 203.360 C 325.651 204.380,334.756 195.422,334.756 194.203 C 334.756 193.847,325.181 189.675,324.371 189.679 C 324.097 189.680,323.620 190.133,323.286 190.711 M336.145 197.866 C 335.236 199.191,333.689 201.266,332.707 202.478 C 330.514 205.183,330.180 205.699,330.677 205.615 C 330.876 205.582,331.638 205.822,332.370 206.149 C 333.101 206.477,333.922 206.745,334.194 206.745 C 334.466 206.745,334.842 206.930,335.031 207.158 C 335.219 207.385,335.599 207.571,335.874 207.571 C 336.150 207.571,336.442 207.679,336.524 207.812 C 336.664 208.038,338.728 208.657,339.267 208.635 C 339.402 208.629,339.606 208.777,339.721 208.963 C 340.027 209.459,342.249 207.502,345.814 203.598 C 349.400 199.670,349.635 200.237,343.294 197.508 C 337.481 195.007,338.130 194.974,336.145 197.866 M303.648 196.598 C 303.648 196.770,303.043 198.164,302.303 199.695 C 298.264 208.057,298.423 207.572,299.741 207.569 C 300.218 207.568,301.255 206.984,302.654 205.926 C 305.425 203.832,309.485 200.022,308.695 200.258 C 308.367 200.355,308.018 200.304,307.919 200.144 C 307.820 199.984,307.605 199.936,307.441 200.038 C 307.277 200.139,307.007 200.037,306.841 199.812 C 306.402 199.217,305.337 198.705,304.988 198.921 C 304.822 199.023,304.577 198.936,304.443 198.728 C 304.237 198.409,304.151 198.415,303.901 198.761 C 303.682 199.067,303.649 198.799,303.773 197.729 C 303.866 196.934,303.876 196.284,303.795 196.284 C 303.714 196.284,303.648 196.425,303.648 196.598 M133.227 198.203 C 135.745 199.488,136.712 202.413,134.870 203.175 C 132.112 204.318,128.837 202.156,128.837 199.192 C 128.837 197.628,131.099 197.118,133.227 198.203 M351.569 201.564 C 351.398 201.764,350.364 203.187,349.270 204.728 C 348.176 206.268,346.743 208.216,346.084 209.056 C 345.079 210.337,344.948 210.640,345.266 210.935 C 345.718 211.354,348.379 212.674,349.327 212.950 C 349.695 213.058,350.362 213.367,350.808 213.639 C 351.255 213.911,351.770 214.075,351.953 214.005 C 352.136 213.935,352.444 214.067,352.637 214.300 C 352.830 214.532,353.097 214.654,353.231 214.571 C 353.366 214.488,353.476 214.552,353.476 214.712 C 353.476 216.736,357.700 211.779,360.115 206.922 C 362.885 201.350,362.978 201.783,359.050 201.973 C 356.142 202.114,353.663 201.894,352.334 201.378 C 352.084 201.281,351.740 201.365,351.569 201.564 M311.493 204.020 C 310.282 204.936,308.078 206.500,306.595 207.496 C 305.111 208.493,304.000 209.409,304.124 209.534 C 304.458 209.868,313.349 213.627,313.805 213.627 C 314.478 213.627,318.729 210.265,322.298 206.909 C 323.746 205.549,324.057 204.925,322.875 205.753 C 322.090 206.303,321.817 206.310,321.817 205.781 C 321.817 205.554,321.724 205.383,321.610 205.401 C 321.118 205.479,320.781 205.332,320.193 204.785 C 319.674 204.301,319.418 204.244,318.696 204.452 C 317.980 204.659,317.659 204.591,316.892 204.072 C 316.379 203.725,315.667 203.441,315.309 203.441 C 314.843 203.441,314.659 203.286,314.659 202.891 C 314.659 201.962,313.817 202.263,311.493 204.020 M328.023 207.827 C 327.939 207.963,328.026 208.145,328.216 208.233 C 328.406 208.320,328.312 208.331,328.006 208.258 C 327.669 208.177,327.182 208.369,326.767 208.746 C 325.686 209.728,322.150 212.323,319.828 213.837 C 317.292 215.490,317.127 215.254,322.371 217.487 C 328.371 220.042,327.517 220.044,330.902 217.468 C 335.170 214.220,338.366 210.874,337.201 210.874 C 337.049 210.874,337.002 210.998,337.096 211.149 C 337.317 211.508,337.059 211.498,336.356 211.122 C 335.936 210.897,335.840 210.900,335.984 211.133 C 336.236 211.541,334.789 211.216,334.205 210.734 C 333.807 210.405,331.827 209.900,331.363 210.009 C 331.238 210.038,331.208 209.945,331.296 209.802 C 331.385 209.659,331.067 209.457,330.590 209.352 C 330.113 209.247,329.374 208.805,328.949 208.370 C 328.524 207.935,328.107 207.691,328.023 207.827 M340.378 214.878 C 336.612 217.766,335.634 218.481,333.721 219.748 C 332.614 220.481,331.772 221.185,331.851 221.312 C 332.191 221.862,341.350 225.527,341.968 225.361 C 343.322 224.996,352.182 217.197,351.742 216.757 C 351.633 216.647,351.389 216.764,351.202 217.017 C 350.865 217.470,349.105 217.310,349.277 216.842 C 349.315 216.739,349.315 216.684,349.277 216.719 C 349.240 216.754,348.902 216.568,348.528 216.306 C 348.154 216.044,347.560 215.829,347.209 215.829 C 346.858 215.829,346.092 215.585,345.506 215.286 C 344.921 214.987,343.928 214.661,343.300 214.560 C 342.495 214.431,342.201 214.267,342.303 214.002 C 342.548 213.363,342.071 213.580,340.378 214.878 M130.286 219.330 C 130.704 219.394,131.324 219.392,131.662 219.327 C 132.001 219.261,131.659 219.209,130.902 219.212 C 130.145 219.214,129.867 219.267,130.286 219.330 M129.800 220.234 C 129.894 220.385,130.218 220.509,130.521 220.509 C 130.824 220.509,130.995 220.385,130.902 220.234 C 130.808 220.083,130.484 219.959,130.181 219.959 C 129.878 219.959,129.707 220.083,129.800 220.234 M350.998 223.271 C 350.014 224.023,348.252 225.226,347.083 225.946 C 344.634 227.453,344.609 227.515,345.931 228.783 C 346.476 229.305,347.287 230.258,347.734 230.902 C 349.016 232.747,348.758 233.082,351.556 225.946 C 352.432 223.713,353.068 221.890,352.968 221.896 C 352.869 221.901,351.982 222.520,350.998 223.271 M130.282 232.266 C 129.942 232.331,129.663 232.515,129.663 232.673 C 129.663 232.838,129.929 232.890,130.282 232.796 C 130.623 232.704,131.056 232.628,131.246 232.626 C 131.435 232.624,131.590 232.498,131.590 232.347 C 131.590 232.067,131.383 232.054,130.282 232.266 " stroke="none" fill="#305bb6" fill-rule="evenodd"></path><path id="path1" d="M268.792 42.964 C 269.078 43.144,270.100 43.354,271.063 43.431 C 272.027 43.508,272.815 43.681,272.815 43.814 C 272.815 43.948,272.504 43.979,272.123 43.884 C 271.743 43.788,271.278 43.836,271.091 43.990 C 270.903 44.143,270.502 44.327,270.200 44.397 C 269.859 44.476,269.927 44.506,270.378 44.475 C 270.878 44.441,271.063 44.539,270.967 44.787 C 270.810 45.197,271.725 45.290,272.140 44.906 C 272.284 44.773,272.897 44.596,273.503 44.513 C 274.109 44.430,274.387 44.424,274.123 44.500 C 273.534 44.668,273.483 45.148,274.054 45.148 C 274.281 45.148,274.467 45.258,274.467 45.393 C 274.467 45.680,273.097 46.072,272.874 45.850 C 272.791 45.767,272.868 45.699,273.044 45.699 C 273.221 45.699,273.365 45.575,273.365 45.423 C 273.365 45.048,272.647 45.076,272.006 45.477 C 271.598 45.732,271.317 45.732,270.758 45.477 C 269.877 45.076,269.511 45.060,269.511 45.423 C 269.511 45.575,269.712 45.699,269.958 45.699 C 270.298 45.699,270.332 45.786,270.101 46.065 C 269.920 46.282,269.433 46.386,268.897 46.320 C 268.208 46.236,268.094 46.278,268.410 46.501 C 268.727 46.724,268.737 46.792,268.453 46.796 C 268.249 46.798,267.753 47.029,267.352 47.310 C 266.950 47.591,266.141 47.895,265.554 47.986 C 264.444 48.160,263.360 48.901,263.615 49.314 C 263.696 49.445,263.591 49.553,263.382 49.553 C 263.172 49.553,262.709 49.862,262.354 50.241 C 261.998 50.619,261.543 50.929,261.342 50.929 C 261.142 50.929,260.977 51.060,260.977 51.221 C 260.977 51.381,260.862 51.441,260.721 51.354 C 260.580 51.267,260.386 51.323,260.289 51.480 C 260.192 51.636,259.998 51.693,259.857 51.606 C 259.716 51.518,259.601 51.623,259.601 51.838 C 259.601 52.053,259.299 52.455,258.929 52.733 C 258.560 53.010,258.309 53.321,258.372 53.422 C 258.930 54.325,255.600 56.201,254.921 55.366 C 254.845 55.272,254.291 54.948,253.690 54.646 C 252.575 54.083,249.004 51.508,247.763 50.369 C 245.889 48.650,245.572 48.478,246.937 49.923 C 257.527 61.124,274.115 64.916,289.844 59.731 C 296.858 57.419,296.897 57.392,295.436 55.741 C 291.091 50.827,284.860 46.734,278.596 44.678 C 274.697 43.397,267.470 42.135,268.792 42.964 M240.699 51.446 C 233.780 56.991,226.432 69.117,226.589 74.729 C 226.606 75.317,226.764 74.991,227.117 73.641 C 229.423 64.833,233.831 57.697,240.438 52.075 C 242.146 50.621,242.142 50.621,244.077 52.529 C 244.969 53.408,246.440 54.740,247.346 55.488 C 248.252 56.236,249.243 57.073,249.548 57.348 C 249.854 57.623,250.537 58.114,251.067 58.439 C 252.229 59.152,252.719 59.606,252.719 59.974 C 252.719 60.125,253.025 60.491,253.401 60.786 C 253.776 61.081,254.206 61.647,254.357 62.044 C 254.508 62.442,254.821 62.767,255.052 62.767 C 255.283 62.767,255.471 62.891,255.471 63.042 C 255.471 63.193,255.255 63.319,254.990 63.321 C 254.718 63.324,254.628 63.414,254.783 63.528 C 254.935 63.639,255.097 64.531,255.143 65.511 C 255.190 66.490,255.337 67.422,255.469 67.582 C 255.604 67.744,255.618 69.333,255.501 71.169 C 255.386 72.983,255.388 74.595,255.504 74.752 C 255.621 74.908,255.718 75.652,255.721 76.403 C 255.731 79.200,257.218 84.970,258.763 88.206 C 259.375 89.489,259.876 90.603,259.876 90.683 C 259.876 91.003,262.870 95.425,263.418 95.913 C 263.741 96.202,264.006 96.582,264.006 96.759 C 264.006 97.128,268.647 101.032,269.086 101.032 C 269.366 101.032,270.190 103.199,269.987 103.402 C 269.932 103.456,269.510 103.392,269.048 103.260 C 268.032 102.968,266.724 103.515,266.077 104.501 C 265.514 105.360,265.152 105.334,263.774 104.336 C 263.147 103.882,262.563 103.510,262.475 103.510 C 262.388 103.510,261.913 103.202,261.419 102.825 C 255.682 98.450,241.968 95.107,231.949 95.642 C 228.072 95.850,228.253 95.745,228.934 97.388 L 229.473 98.692 234.558 98.871 C 242.278 99.143,247.858 100.471,254.178 103.540 C 256.781 104.805,257.291 105.111,262.354 108.443 C 266.903 111.438,266.536 111.203,269.406 112.960 C 272.140 114.633,280.273 118.651,280.926 118.651 C 281.351 118.651,281.366 118.712,281.039 119.109 C 280.716 119.499,280.719 119.547,281.056 119.436 C 282.012 119.120,281.487 118.601,279.027 117.428 C 277.579 116.737,276.425 116.058,276.463 115.919 C 276.551 115.593,274.138 114.293,273.111 114.112 C 271.551 113.838,266.281 110.828,262.216 107.890 C 259.331 105.805,257.136 104.469,254.032 102.911 C 249.834 100.802,248.653 99.657,250.107 99.104 C 252.372 98.243,259.704 101.967,270.750 109.589 C 275.491 112.861,283.623 116.449,286.297 116.449 C 287.673 116.449,294.492 110.922,296.277 108.359 C 296.606 107.887,295.971 108.462,294.866 109.635 C 291.373 113.345,287.096 116.325,285.685 116.031 C 281.525 115.165,273.252 111.257,270.711 108.958 C 270.386 108.665,269.748 108.217,269.293 107.963 C 267.817 107.140,266.208 105.986,266.208 105.752 C 266.208 104.596,268.568 104.347,268.735 105.485 C 268.862 106.349,269.301 106.373,270.218 105.566 C 270.881 104.983,271.198 104.887,271.989 105.032 C 274.556 105.500,275.258 105.479,276.037 104.909 C 276.754 104.386,277.010 104.364,279.773 104.589 C 283.026 104.855,283.868 104.764,283.640 104.171 C 283.537 103.901,283.708 103.785,284.210 103.785 C 284.605 103.785,284.928 103.909,284.928 104.061 C 284.928 104.495,286.750 104.381,287.130 103.923 C 287.358 103.648,287.975 103.510,288.973 103.510 C 290.602 103.510,291.063 103.230,291.356 102.062 C 291.487 101.539,291.723 101.308,292.124 101.308 C 292.564 101.308,292.633 101.392,292.410 101.661 C 292.024 102.127,292.397 102.727,292.885 102.425 C 293.090 102.299,293.184 102.077,293.095 101.933 C 292.910 101.634,294.351 100.482,294.910 100.482 C 295.113 100.482,295.409 100.351,295.568 100.192 C 295.728 100.033,296.217 99.864,296.656 99.817 C 297.112 99.769,297.454 99.569,297.454 99.350 C 297.454 99.140,297.597 98.815,297.773 98.628 C 297.949 98.442,298.148 98.132,298.215 97.940 C 298.304 97.684,298.492 97.729,298.917 98.106 C 299.718 98.817,300.343 98.505,300.348 97.393 C 300.353 96.050,300.614 95.317,301.135 95.181 C 301.635 95.050,302.271 95.571,302.271 96.111 C 302.271 96.294,302.347 96.368,302.441 96.275 C 302.534 96.181,302.490 95.758,302.343 95.334 C 302.196 94.910,302.168 94.315,302.281 94.012 L 302.487 93.462 302.711 94.012 C 302.921 94.531,302.945 94.523,303.126 93.875 C 303.283 93.309,303.321 93.383,303.335 94.288 C 303.345 94.893,303.176 95.699,302.959 96.077 C 302.743 96.456,302.570 97.013,302.576 97.316 C 302.630 100.376,305.444 88.661,305.775 83.997 C 306.254 77.256,302.979 65.375,299.439 61.009 L 298.796 60.215 294.959 61.663 C 275.287 69.083,259.300 66.173,244.527 52.485 C 241.850 50.005,242.334 50.136,240.699 51.446 M226.215 76.497 C 226.105 77.008,226.029 77.813,226.045 78.286 C 226.071 79.021,226.112 78.965,226.324 77.908 C 226.461 77.226,226.538 76.421,226.494 76.118 C 226.440 75.746,226.350 75.868,226.215 76.497 M301.170 95.923 C 301.170 96.141,301.294 96.396,301.445 96.490 C 301.597 96.584,301.721 96.405,301.721 96.093 C 301.721 95.782,301.597 95.526,301.445 95.526 C 301.294 95.526,301.170 95.705,301.170 95.923 M302.018 98.513 C 301.854 98.819,301.726 99.232,301.732 99.431 C 301.738 99.631,301.933 99.442,302.166 99.012 C 302.399 98.582,302.528 98.169,302.453 98.094 C 302.377 98.019,302.182 98.207,302.018 98.513 M301.354 100.138 C 300.645 101.319,299.322 104.069,299.665 103.648 C 300.183 103.011,301.790 99.931,301.603 99.931 C 301.534 99.931,301.422 100.024,301.354 100.138 M297.846 105.919 C 297.193 106.789,296.843 107.352,297.069 107.170 C 297.532 106.796,299.344 104.336,299.155 104.336 C 299.089 104.336,298.499 105.048,297.846 105.919 M268.040 106.687 C 268.220 107.157,268.728 107.100,268.898 106.590 C 268.958 106.408,268.755 106.263,268.442 106.263 C 268.046 106.263,267.926 106.390,268.040 106.687 M270.888 106.784 C 270.888 106.919,271.084 107.105,271.323 107.197 C 271.939 107.433,271.989 107.414,271.989 106.951 C 271.989 106.722,271.744 106.538,271.438 106.538 C 271.136 106.538,270.888 106.649,270.888 106.784 M248.864 118.787 C 252.827 120.901,258.903 122.253,264.969 122.368 L 269.649 122.458 265.520 122.239 C 260.232 121.959,259.315 121.807,254.646 120.434 C 253.813 120.190,252.760 119.893,252.306 119.775 C 251.851 119.658,250.833 119.233,250.044 118.831 C 248.248 117.918,247.160 117.877,248.864 118.787 M279.284 119.900 C 278.596 120.231,278.573 120.269,279.147 120.129 C 279.927 119.938,280.803 119.492,280.385 119.498 C 280.234 119.500,279.738 119.681,279.284 119.900 M276.669 120.734 L 275.705 121.124 276.669 120.957 C 277.761 120.768,278.770 120.310,278.045 120.332 C 277.818 120.339,277.199 120.520,276.669 120.734 " stroke="none" fill="#a6c71a" fill-rule="evenodd"></path><path id="path2" d="M261.390 42.866 C 256.294 43.561,247.501 46.541,245.753 48.165 C 245.328 48.560,251.296 53.429,253.697 54.646 C 254.294 54.948,254.845 55.272,254.921 55.366 C 255.600 56.201,258.930 54.325,258.372 53.422 C 258.309 53.321,258.560 53.010,258.929 52.733 C 259.299 52.455,259.601 52.053,259.601 51.838 C 259.601 51.623,259.716 51.518,259.857 51.606 C 259.998 51.693,260.192 51.636,260.289 51.480 C 260.386 51.323,260.580 51.267,260.721 51.354 C 260.862 51.441,260.977 51.381,260.977 51.221 C 260.977 51.060,261.142 50.929,261.342 50.929 C 261.543 50.929,261.998 50.619,262.354 50.241 C 262.709 49.862,263.172 49.553,263.382 49.553 C 263.591 49.553,263.696 49.445,263.615 49.314 C 263.360 48.901,264.444 48.160,265.554 47.986 C 266.141 47.895,266.950 47.591,267.352 47.310 C 267.753 47.029,268.249 46.798,268.453 46.796 C 268.737 46.792,268.727 46.724,268.410 46.501 C 268.094 46.278,268.208 46.236,268.897 46.320 C 269.433 46.386,269.920 46.282,270.101 46.065 C 270.332 45.786,270.298 45.699,269.958 45.699 C 269.712 45.699,269.511 45.575,269.511 45.423 C 269.511 45.060,269.877 45.076,270.758 45.477 C 271.317 45.732,271.598 45.732,272.006 45.477 C 272.647 45.076,273.365 45.048,273.365 45.423 C 273.365 45.575,273.221 45.699,273.044 45.699 C 272.868 45.699,272.791 45.767,272.874 45.850 C 273.097 46.072,274.467 45.680,274.467 45.393 C 274.467 45.258,274.281 45.148,274.054 45.148 C 273.483 45.148,273.534 44.668,274.123 44.500 C 274.387 44.424,274.109 44.430,273.503 44.513 C 272.897 44.596,272.284 44.773,272.140 44.906 C 271.725 45.290,270.810 45.197,270.967 44.787 C 271.063 44.539,270.878 44.441,270.378 44.475 C 269.927 44.506,269.859 44.476,270.200 44.397 C 270.502 44.327,270.903 44.143,271.091 43.990 C 271.278 43.836,271.743 43.788,272.123 43.884 C 272.523 43.984,272.815 43.939,272.815 43.777 C 272.815 43.622,272.226 43.491,271.507 43.484 C 270.788 43.477,269.704 43.294,269.098 43.075 C 268.053 42.699,263.516 42.575,261.390 42.866 M240.438 52.075 C 232.885 58.501,227.643 67.959,226.425 77.357 C 226.317 78.190,226.088 79.045,225.915 79.258 C 225.561 79.696,225.639 87.489,226.003 87.956 C 226.121 88.107,226.299 88.875,226.399 89.662 C 226.765 92.545,228.300 97.777,228.934 98.303 C 229.146 98.479,229.319 98.788,229.319 98.991 C 229.319 99.915,231.564 103.966,233.905 107.264 C 235.059 108.891,239.787 113.652,241.303 114.713 C 244.887 117.224,247.114 118.411,247.880 118.219 C 248.294 118.115,249.049 118.325,250.001 118.809 C 250.814 119.223,251.851 119.658,252.306 119.775 C 252.760 119.893,253.813 120.190,254.646 120.434 C 257.967 121.411,259.020 121.642,261.609 121.965 C 264.873 122.372,270.791 122.172,273.503 121.564 C 277.745 120.612,282.760 118.651,280.951 118.651 C 280.278 118.651,272.192 114.665,269.406 112.960 C 266.536 111.203,266.903 111.438,262.354 108.443 C 257.291 105.111,256.781 104.805,254.178 103.540 C 247.858 100.471,242.278 99.143,234.558 98.871 L 229.473 98.692 228.934 97.388 C 228.253 95.745,228.072 95.850,231.949 95.642 C 241.968 95.107,255.682 98.450,261.419 102.825 C 261.913 103.202,262.388 103.510,262.475 103.510 C 262.563 103.510,263.147 103.882,263.774 104.336 C 265.152 105.334,265.514 105.360,266.077 104.501 C 266.724 103.515,268.032 102.968,269.048 103.260 C 269.510 103.392,269.932 103.456,269.987 103.402 C 270.190 103.199,269.366 101.032,269.086 101.032 C 268.647 101.032,264.006 97.128,264.006 96.759 C 264.006 96.582,263.741 96.202,263.418 95.913 C 262.870 95.425,259.876 91.003,259.876 90.683 C 259.876 90.603,259.375 89.489,258.763 88.206 C 257.218 84.970,255.731 79.200,255.721 76.403 C 255.718 75.652,255.621 74.908,255.504 74.752 C 255.388 74.595,255.386 72.983,255.501 71.169 C 255.618 69.333,255.604 67.744,255.469 67.582 C 255.337 67.422,255.190 66.490,255.143 65.511 C 255.097 64.531,254.935 63.639,254.783 63.528 C 254.628 63.414,254.718 63.324,254.990 63.321 C 255.255 63.319,255.471 63.193,255.471 63.042 C 255.471 62.891,255.283 62.767,255.052 62.767 C 254.821 62.767,254.508 62.442,254.357 62.044 C 254.206 61.647,253.776 61.081,253.401 60.786 C 253.025 60.491,252.719 60.125,252.719 59.974 C 252.719 59.606,252.229 59.152,251.067 58.439 C 250.537 58.114,249.854 57.623,249.548 57.348 C 249.243 57.073,248.252 56.236,247.346 55.488 C 246.440 54.740,244.969 53.408,244.077 52.529 C 242.142 50.621,242.146 50.621,240.438 52.075 M303.143 93.859 C 303.098 94.510,303.085 94.514,302.693 93.996 C 302.294 93.469,302.288 93.469,302.247 94.012 C 302.196 94.694,302.194 94.672,302.389 95.669 C 302.478 96.121,302.468 96.310,302.369 96.090 C 301.552 94.284,300.358 95.054,300.348 97.393 C 300.343 98.505,299.718 98.817,298.917 98.106 C 298.492 97.729,298.304 97.684,298.215 97.940 C 298.148 98.132,297.949 98.442,297.773 98.628 C 297.597 98.815,297.454 99.140,297.454 99.350 C 297.454 99.569,297.112 99.769,296.656 99.817 C 296.217 99.864,295.728 100.033,295.568 100.192 C 295.409 100.351,295.113 100.482,294.910 100.482 C 294.351 100.482,292.910 101.634,293.095 101.933 C 293.184 102.077,293.090 102.299,292.885 102.425 C 292.397 102.727,292.024 102.127,292.410 101.661 C 292.633 101.392,292.564 101.308,292.124 101.308 C 291.723 101.308,291.487 101.539,291.356 102.062 C 291.063 103.230,290.602 103.510,288.973 103.510 C 287.975 103.510,287.358 103.648,287.130 103.923 C 286.750 104.381,284.928 104.495,284.928 104.061 C 284.928 103.909,284.605 103.785,284.210 103.785 C 283.708 103.785,283.537 103.901,283.640 104.171 C 283.868 104.764,283.026 104.855,279.773 104.589 C 277.010 104.364,276.754 104.386,276.037 104.909 C 275.258 105.479,274.556 105.500,271.989 105.032 C 271.198 104.887,270.881 104.983,270.218 105.566 C 269.301 106.373,268.862 106.349,268.735 105.485 C 268.568 104.347,266.208 104.596,266.208 105.752 C 266.208 105.986,267.817 107.140,269.293 107.963 C 269.748 108.217,270.386 108.665,270.711 108.958 C 273.252 111.257,281.525 115.165,285.685 116.031 C 288.832 116.686,297.686 107.656,301.386 100.017 C 301.519 99.742,301.834 99.106,302.087 98.601 C 302.340 98.097,302.546 97.502,302.546 97.280 C 302.546 97.058,302.739 96.503,302.975 96.047 C 303.221 95.571,303.358 94.786,303.297 94.202 C 303.236 93.627,303.170 93.478,303.143 93.859 M301.721 96.093 C 301.721 96.405,301.597 96.584,301.445 96.490 C 301.294 96.396,301.170 96.141,301.170 95.923 C 301.170 95.705,301.294 95.526,301.445 95.526 C 301.597 95.526,301.721 95.782,301.721 96.093 M268.898 106.590 C 268.728 107.100,268.220 107.157,268.040 106.687 C 267.926 106.390,268.046 106.263,268.442 106.263 C 268.755 106.263,268.958 106.408,268.898 106.590 M271.989 106.951 C 271.989 107.414,271.939 107.433,271.323 107.197 C 270.708 106.961,270.782 106.538,271.438 106.538 C 271.744 106.538,271.989 106.722,271.989 106.951 " stroke="none" fill="#5e8809" fill-rule="evenodd"></path><path id="path3" d="M127.736 26.888 C 91.605 29.458,67.538 45.372,52.447 76.669 C 46.630 88.734,40.127 106.143,40.210 109.429 C 40.218 109.732,40.712 108.226,41.307 106.084 C 49.751 75.714,65.115 51.933,83.827 40.272 C 111.138 23.252,155.134 22.549,183.111 38.686 C 185.607 40.126,185.473 40.114,189.783 39.243 C 200.097 37.158,210.630 35.976,221.699 35.661 C 223.914 35.598,224.342 35.643,223.744 35.875 C 222.833 36.230,222.781 36.496,223.583 36.706 C 224.567 36.963,223.678 37.708,222.334 37.753 C 221.709 37.773,221.464 37.842,221.789 37.906 C 222.114 37.969,222.443 38.262,222.520 38.556 C 222.603 38.871,222.897 39.092,223.236 39.092 C 223.757 39.092,223.813 39.251,223.813 40.727 C 223.813 41.627,223.937 42.439,224.088 42.533 C 224.240 42.626,224.363 43.564,224.363 44.616 C 224.363 46.415,224.333 46.510,223.849 46.208 C 223.547 46.020,223.121 45.977,222.817 46.106 C 222.318 46.317,222.319 46.331,222.849 46.494 C 224.015 46.851,223.712 48.417,222.437 48.621 C 221.388 48.789,220.875 49.277,221.748 49.277 C 221.975 49.277,222.161 49.401,222.161 49.553 C 222.161 49.916,223.891 49.906,224.699 49.538 C 225.128 49.342,225.559 49.337,226.020 49.520 C 226.658 49.775,226.635 49.794,225.671 49.810 C 225.103 49.820,224.639 49.935,224.639 50.065 C 224.639 50.196,223.802 50.387,222.780 50.490 C 221.758 50.594,220.489 50.790,219.959 50.928 C 219.429 51.065,217.509 51.508,215.692 51.912 C 213.875 52.317,211.211 52.960,209.773 53.341 C 208.334 53.723,206.815 54.093,206.397 54.165 C 205.064 54.395,205.254 54.736,208.717 58.318 C 214.314 64.108,219.065 69.828,223.830 76.513 L 225.877 79.386 226.068 77.890 C 226.843 71.787,228.275 67.613,231.540 61.941 C 232.020 61.108,232.280 60.551,232.120 60.702 C 231.684 61.112,229.241 65.473,228.649 66.896 C 228.366 67.577,227.843 68.748,227.487 69.497 C 227.132 70.246,226.841 71.148,226.841 71.502 C 226.841 72.047,226.761 72.103,226.323 71.869 C 225.877 71.630,225.781 71.714,225.630 72.471 C 225.469 73.274,224.087 74.880,223.556 74.880 C 223.434 74.880,222.960 74.415,222.504 73.847 C 222.047 73.279,220.532 71.390,219.138 69.649 C 215.337 64.903,212.724 61.943,208.597 57.708 C 207.269 56.345,206.224 55.107,206.274 54.958 C 206.502 54.273,219.497 51.514,230.420 49.831 C 232.424 49.522,239.596 48.829,242.916 48.623 L 245.089 48.488 246.770 50.053 L 248.451 51.617 246.937 49.928 C 246.105 48.999,245.247 48.224,245.031 48.207 C 244.462 48.162,245.798 46.800,246.412 46.800 C 246.676 46.800,246.933 46.694,246.983 46.566 C 247.493 45.266,257.725 42.492,263.730 42.026 C 264.302 41.982,264.666 41.818,264.625 41.623 C 264.587 41.442,264.680 41.294,264.831 41.294 C 264.983 41.294,265.107 41.393,265.107 41.515 C 265.107 41.725,267.045 42.267,268.823 42.553 C 270.577 42.836,264.849 40.651,260.762 39.478 C 240.826 33.756,217.202 33.450,191.272 38.577 L 185.573 39.704 183.816 38.722 C 167.620 29.664,147.724 25.466,127.736 26.888 M229.253 35.702 C 228.990 35.771,228.494 35.773,228.152 35.707 C 227.809 35.642,228.025 35.585,228.630 35.582 C 229.236 35.579,229.516 35.633,229.253 35.702 M243.634 47.894 C 243.920 48.084,243.203 48.158,241.294 48.136 C 239.632 48.116,238.923 48.036,239.504 47.933 C 241.207 47.631,243.209 47.612,243.634 47.894 M143.840 48.103 C 142.587 48.416,140.950 50.206,140.950 51.262 C 140.950 51.847,143.470 52.637,144.732 52.448 C 146.054 52.249,148.820 49.924,148.593 49.201 C 148.302 48.274,145.627 47.655,143.840 48.103 M147.153 48.575 C 149.335 49.487,146.962 52.030,143.929 52.030 C 141.796 52.030,141.227 51.564,141.826 50.308 C 142.655 48.569,145.176 47.749,147.153 48.575 M237.509 48.366 C 237.244 48.435,236.810 48.435,236.545 48.366 C 236.280 48.297,236.497 48.240,237.027 48.240 C 237.557 48.240,237.774 48.297,237.509 48.366 M233.242 48.921 C 232.901 48.987,232.343 48.987,232.003 48.921 C 231.662 48.855,231.941 48.802,232.622 48.802 C 233.304 48.802,233.582 48.855,233.242 48.921 M244.184 52.168 C 245.007 53.001,245.742 53.682,245.817 53.682 C 245.893 53.682,245.282 53.001,244.460 52.168 C 243.637 51.335,242.902 50.654,242.827 50.654 C 242.751 50.654,243.362 51.335,244.184 52.168 M235.926 55.747 C 235.257 56.428,234.772 56.986,234.848 56.986 C 234.923 56.986,235.532 56.428,236.201 55.747 C 236.870 55.065,237.355 54.508,237.279 54.508 C 237.203 54.508,236.594 55.065,235.926 55.747 M164.133 57.574 C 162.652 58.523,162.227 59.632,163.020 60.481 C 164.959 62.557,168.120 62.465,169.959 60.279 C 171.841 58.042,166.949 55.771,164.133 57.574 M168.281 57.636 C 171.309 58.917,170.054 61.531,166.414 61.524 C 163.480 61.518,162.177 59.988,163.798 58.454 C 165.068 57.254,166.682 56.959,168.281 57.636 M113.558 60.592 C 110.932 61.399,109.237 65.278,111.338 65.672 C 113.777 66.130,116.692 63.715,116.718 61.216 C 116.727 60.335,115.307 60.055,113.558 60.592 M116.292 61.083 C 116.911 62.086,114.755 64.776,112.971 65.225 C 110.742 65.786,110.178 64.576,111.708 62.519 C 112.672 61.224,115.777 60.251,116.292 61.083 M185.711 66.419 C 183.709 67.564,183.855 69.173,186.093 70.633 C 188.563 72.243,192.820 71.164,192.292 69.061 C 191.648 66.493,188.083 65.062,185.711 66.419 M189.960 66.934 C 193.200 68.755,191.611 71.883,187.871 71.046 C 186.233 70.679,184.721 69.304,184.721 68.179 C 184.721 66.642,188.038 65.853,189.960 66.934 M133.840 70.128 C 131.776 71.466,130.987 74.063,132.416 74.815 C 134.984 76.168,139.023 73.766,139.023 70.885 C 139.023 69.339,135.786 68.866,133.840 70.128 M138.046 70.244 C 140.108 71.183,137.190 74.880,134.387 74.880 C 133.277 74.880,131.865 74.416,131.865 74.051 C 131.865 71.253,135.435 69.054,138.046 70.244 M82.450 73.468 C 80.718 74.543,79.590 76.618,79.952 78.060 C 80.190 79.011,80.681 78.902,80.488 77.941 C 80.144 76.218,82.141 73.508,83.758 73.504 C 85.413 73.501,83.608 77.440,81.530 78.364 C 81.128 78.543,80.986 78.699,81.216 78.711 C 82.728 78.792,84.515 76.358,84.515 74.219 C 84.515 72.751,83.940 72.542,82.450 73.468 M155.902 78.762 C 153.749 79.385,152.091 82.443,153.355 83.460 C 156.262 85.797,159.767 84.905,161.245 81.451 C 161.988 79.714,158.565 77.991,155.902 78.762 M159.514 79.432 C 161.304 80.281,161.346 81.726,159.627 83.326 C 157.486 85.320,153.054 84.442,153.434 82.099 C 153.860 79.475,156.845 78.165,159.514 79.432 M305.639 79.560 C 305.639 80.089,305.695 80.306,305.764 80.041 C 305.834 79.776,305.834 79.343,305.764 79.078 C 305.695 78.813,305.639 79.030,305.639 79.560 M105.643 82.236 C 108.372 82.575,105.692 88.094,102.800 88.094 C 100.667 88.094,101.455 84.323,103.899 82.833 C 104.784 82.293,104.430 82.096,103.483 82.602 C 101.745 83.532,100.543 87.391,101.693 88.346 C 102.348 88.890,104.509 88.171,105.601 87.047 C 107.517 85.074,107.621 82.001,105.769 82.081 C 104.752 82.125,104.752 82.126,105.643 82.236 M305.951 85.588 C 306.291 87.713,305.840 90.864,305.160 91.123 C 304.685 91.303,304.480 91.728,304.214 93.082 C 303.074 98.877,298.327 106.749,292.870 111.898 C 291.454 113.233,290.461 114.232,290.663 114.118 C 291.241 113.791,290.351 115.368,287.872 119.064 C 280.352 130.276,265.361 147.306,264.235 145.916 C 263.226 144.672,256.230 133.058,253.614 128.286 C 253.158 127.454,252.374 126.029,251.873 125.120 C 249.990 121.707,249.641 120.832,249.992 120.408 C 250.276 120.066,250.380 120.068,250.772 120.423 C 251.021 120.648,251.468 120.769,251.765 120.692 C 252.062 120.615,252.848 120.744,253.510 120.978 C 254.173 121.212,254.978 121.398,255.300 121.391 C 255.621 121.384,254.646 120.970,253.131 120.471 C 251.617 119.972,249.857 119.296,249.220 118.969 C 248.582 118.643,247.984 118.376,247.890 118.376 C 247.305 118.376,258.321 137.471,262.922 144.430 L 264.767 147.221 262.973 148.826 C 261.986 149.708,260.731 150.883,260.184 151.436 C 257.740 153.906,253.715 157.330,253.256 157.330 C 253.125 157.330,251.514 155.100,249.676 152.374 C 244.992 145.428,242.050 141.776,241.137 141.776 C 240.326 141.776,237.215 145.602,235.821 148.314 C 234.995 149.921,235.581 149.255,236.890 147.100 C 239.483 142.828,240.822 141.646,241.919 142.663 C 243.717 144.329,252.443 156.403,252.443 157.225 C 252.443 158.076,237.833 169.263,228.219 175.774 C 223.508 178.964,223.220 179.088,223.528 177.796 C 223.991 175.855,226.438 169.433,227.999 166.060 C 228.783 164.368,231.926 156.786,232.246 155.816 C 232.712 154.403,231.174 157.671,229.850 160.908 C 228.983 163.028,227.575 166.360,226.722 168.311 C 225.086 172.052,222.717 178.735,222.704 179.643 C 222.698 180.145,217.963 183.258,213.489 185.700 C 212.732 186.114,211.803 186.666,211.425 186.928 C 211.046 187.190,209.993 187.808,209.085 188.302 C 208.176 188.796,206.690 189.614,205.781 190.121 C 204.873 190.627,203.572 191.323,202.891 191.667 C 202.209 192.010,201.590 192.353,201.514 192.429 C 201.271 192.672,192.623 197.056,189.401 198.569 C 183.665 201.262,182.270 201.887,180.992 202.335 C 180.227 202.603,179.073 203.093,178.426 203.423 C 177.779 203.753,176.422 204.312,175.411 204.667 C 174.399 205.021,172.333 205.812,170.819 206.425 C 169.305 207.038,167.323 207.803,166.414 208.125 C 165.506 208.447,164.391 208.867,163.937 209.059 C 163.482 209.251,162.429 209.623,161.597 209.885 C 160.764 210.147,159.706 210.533,159.245 210.741 C 158.785 210.950,157.794 211.267,157.043 211.445 C 155.830 211.734,154.696 212.109,152.925 212.809 C 151.720 213.286,149.487 213.902,148.967 213.902 C 148.663 213.902,148.345 214.015,148.260 214.154 C 148.174 214.292,147.583 214.493,146.947 214.601 C 146.310 214.708,145.598 214.896,145.365 215.019 C 144.940 215.242,141.186 216.184,138.610 216.714 C 137.853 216.870,136.986 217.094,136.683 217.212 C 136.380 217.330,135.141 217.630,133.930 217.877 C 132.719 218.125,131.347 218.447,130.882 218.593 C 130.417 218.738,129.759 218.858,129.421 218.858 C 129.082 218.858,128.876 218.973,128.963 219.114 C 129.050 219.255,129.004 219.443,128.860 219.531 C 128.717 219.620,128.522 219.566,128.427 219.413 C 128.332 219.259,127.865 219.133,127.389 219.133 C 126.483 219.133,126.603 219.507,127.598 219.782 C 127.901 219.866,127.312 219.868,126.290 219.787 C 124.943 219.680,124.432 219.731,124.432 219.971 C 124.432 220.197,124.718 220.248,125.327 220.131 C 125.819 220.037,126.077 220.053,125.901 220.167 C 125.598 220.364,125.009 228.523,125.250 229.181 C 125.483 229.817,125.280 230.799,124.866 231.030 C 124.621 231.167,124.492 231.396,124.580 231.538 C 124.668 231.680,124.516 231.801,124.242 231.806 C 123.480 231.821,122.373 232.508,122.743 232.737 C 122.915 232.843,124.226 232.895,125.655 232.852 C 127.085 232.810,128.327 232.847,128.415 232.935 C 128.636 233.156,124.008 234.052,123.103 233.964 C 122.698 233.924,122.120 234.027,121.817 234.192 C 121.296 234.476,119.099 234.819,114.109 235.394 C 105.679 236.364,96.216 236.674,88.782 236.223 C 84.106 235.938,81.629 235.681,73.980 234.682 C 73.491 234.618,72.423 234.438,71.607 234.282 C 69.527 233.884,68.833 233.927,68.627 234.464 C 68.528 234.724,68.592 234.977,68.774 235.037 C 68.952 235.097,69.098 235.321,69.098 235.536 C 69.098 235.750,69.293 235.926,69.530 235.926 C 69.836 235.926,69.911 235.766,69.786 235.374 C 69.669 235.003,69.757 234.766,70.055 234.651 C 70.681 234.411,70.924 234.758,70.550 235.358 C 70.303 235.752,70.319 235.980,70.620 236.377 C 71.138 237.061,71.129 237.456,70.606 237.021 C 70.375 236.830,70.100 236.759,69.994 236.865 C 69.889 236.970,69.985 237.172,70.208 237.313 C 70.529 237.516,70.489 237.570,70.009 237.573 C 69.678 237.576,69.330 237.454,69.236 237.302 C 69.142 237.151,68.787 237.027,68.447 237.027 C 68.106 237.027,67.587 236.845,67.293 236.623 C 66.999 236.400,66.546 236.215,66.286 236.210 C 66.026 236.205,65.407 236.023,64.910 235.805 C 61.338 234.242,60.551 233.885,59.347 233.280 C 47.336 227.247,38.626 219.173,33.751 209.552 C 32.911 207.894,32.552 207.642,33.184 209.153 C 34.540 212.400,39.029 218.511,42.786 222.224 C 54.576 233.876,70.352 240.348,93.049 242.843 C 97.190 243.299,114.353 243.302,118.789 242.849 C 129.563 241.748,136.909 240.584,145.414 238.630 L 149.191 237.762 151.608 238.470 C 157.458 240.182,161.680 240.744,168.617 240.734 C 174.341 240.726,176.246 240.554,182.657 239.468 C 194.598 237.446,209.584 231.811,221.748 224.771 C 223.262 223.895,224.911 222.947,225.412 222.665 C 226.450 222.080,234.195 216.974,236.476 215.370 C 242.345 211.243,248.666 206.174,254.173 201.179 L 257.142 198.486 258.991 198.459 C 271.272 198.284,277.213 199.151,285.960 202.396 C 288.335 203.278,288.459 203.421,287.818 204.542 C 287.245 205.545,287.279 205.609,288.712 206.223 C 289.431 206.532,290.391 206.950,290.846 207.154 C 292.885 208.067,297.055 209.773,297.245 209.771 C 297.494 209.768,298.142 208.438,298.142 207.929 C 298.142 207.732,298.174 207.571,298.213 207.571 C 298.545 207.571,303.010 209.283,303.479 209.590 C 304.175 210.045,313.239 213.902,313.615 213.902 C 313.752 213.902,315.066 214.476,316.533 215.177 C 319.369 216.531,325.142 219.004,327.962 220.072 C 328.898 220.426,330.716 221.211,332.003 221.815 C 333.996 222.751,336.348 223.761,342.275 226.228 C 343.308 226.658,346.538 229.720,347.760 231.427 C 349.590 233.984,357.385 238.244,359.337 237.754 C 360.760 237.397,360.899 234.842,359.497 234.829 C 359.250 234.826,358.899 234.643,358.715 234.422 C 358.531 234.201,358.114 233.939,357.787 233.841 C 357.460 233.743,356.168 233.180,354.916 232.592 C 353.663 232.003,352.336 231.521,351.966 231.521 C 350.298 231.521,350.366 230.152,352.261 225.513 C 353.107 223.442,353.900 221.341,354.023 220.843 C 355.273 215.809,360.087 208.221,361.046 209.773 C 361.140 209.924,361.473 210.048,361.787 210.048 C 362.101 210.048,362.744 210.281,363.216 210.565 C 363.688 210.850,364.570 211.239,365.175 211.430 C 365.781 211.622,366.508 211.937,366.790 212.131 C 367.072 212.325,367.464 212.423,367.660 212.347 C 367.857 212.272,368.097 212.466,368.197 212.781 C 368.419 213.478,368.772 213.511,369.145 212.870 C 369.393 212.445,369.427 212.465,369.434 213.041 C 369.453 214.487,370.670 212.620,372.627 208.145 C 373.733 205.617,373.588 205.146,371.404 204.169 C 366.232 201.854,362.888 201.029,360.720 201.533 C 357.522 202.275,352.879 201.542,349.107 199.701 C 346.626 198.490,339.826 195.595,338.059 194.999 C 337.378 194.768,336.015 194.175,335.031 193.680 C 334.047 193.186,332.934 192.684,332.558 192.566 C 332.182 192.448,330.974 191.936,329.873 191.427 C 328.772 190.918,327.779 190.502,327.666 190.501 C 327.553 190.500,327.134 190.329,326.734 190.120 C 326.335 189.912,325.344 189.524,324.532 189.258 C 323.720 188.992,322.374 188.425,321.542 187.997 C 320.709 187.570,317.674 186.232,314.797 185.024 C 309.308 182.721,309.106 182.565,309.818 181.189 C 310.356 180.148,310.287 180.093,306.538 178.564 C 305.630 178.194,303.838 177.445,302.557 176.901 C 299.698 175.687,299.882 175.680,299.345 177.021 C 298.866 178.219,298.669 178.248,296.946 177.371 C 296.516 177.152,296.101 177.035,296.025 177.111 C 295.948 177.188,296.517 177.522,297.289 177.854 C 298.979 178.581,298.967 178.239,297.428 181.722 C 294.040 189.391,293.438 191.056,295.750 186.363 C 297.164 183.494,297.187 183.466,297.867 183.809 C 299.908 184.837,302.170 185.822,302.488 185.822 C 302.687 185.822,303.342 186.101,303.942 186.442 C 304.828 186.944,305.078 186.991,305.269 186.688 C 305.447 186.407,305.608 186.520,305.920 187.146 C 306.616 188.542,299.563 206.408,298.310 206.420 C 298.176 206.421,297.959 206.588,297.828 206.790 C 297.668 207.038,297.524 207.063,297.385 206.867 C 297.271 206.707,296.187 206.154,294.976 205.638 C 293.765 205.122,292.529 204.540,292.231 204.346 C 291.932 204.151,291.419 203.992,291.090 203.992 C 290.761 203.992,290.416 203.792,290.322 203.548 C 290.214 203.266,289.951 203.156,289.604 203.247 C 289.303 203.325,289.058 203.308,289.059 203.209 C 289.069 202.407,291.968 194.799,293.781 190.820 C 294.081 190.161,294.272 189.569,294.205 189.502 C 294.092 189.389,292.942 192.006,289.953 199.174 C 288.322 203.087,288.363 203.045,286.804 202.377 C 280.044 199.479,272.389 198.098,263.023 198.087 L 256.949 198.080 253.251 201.397 C 228.691 223.427,202.525 236.751,177.564 239.938 C 168.509 241.094,154.908 239.978,150.611 237.726 L 149.907 237.358 151.141 237.034 C 171.140 231.788,193.874 222.636,209.881 213.390 C 211.228 212.612,212.367 211.975,212.412 211.975 C 212.457 211.975,214.700 210.652,217.396 209.035 C 238.126 196.601,255.018 183.056,270.200 166.696 C 273.461 163.180,273.513 163.124,274.714 161.724 C 277.958 157.940,278.189 157.821,278.507 159.778 C 278.651 160.665,278.594 160.823,278.084 160.956 C 277.760 161.041,277.495 161.257,277.495 161.436 C 277.495 162.359,279.067 162.769,279.697 162.010 C 280.078 161.550,281.349 161.442,281.349 161.869 C 281.349 162.288,282.254 163.248,282.649 163.248 C 282.842 163.248,283.001 163.486,283.001 163.777 C 283.001 164.828,283.279 165.178,283.837 164.830 C 284.185 164.613,284.264 164.407,284.084 164.190 C 283.905 163.975,283.998 163.656,284.367 163.215 C 284.804 162.694,284.967 162.637,285.164 162.935 C 285.468 163.396,285.273 164.224,284.760 164.650 C 284.550 164.825,284.377 165.128,284.377 165.324 C 284.377 165.520,284.284 165.721,284.171 165.772 C 284.057 165.822,283.605 166.415,283.166 167.090 L 282.368 168.316 283.541 169.292 C 286.867 172.061,295.183 177.311,295.594 176.900 C 295.676 176.818,295.508 176.663,295.222 176.556 C 292.708 175.614,283.276 169.220,283.276 168.456 C 283.276 168.329,284.169 166.888,285.260 165.255 C 303.545 137.876,311.515 108.744,306.651 87.061 C 306.080 84.515,305.627 83.562,305.951 85.588 M176.329 88.242 C 174.340 89.600,174.048 90.629,175.208 92.201 C 177.037 94.680,179.913 95.018,182.312 93.036 C 185.526 90.381,179.853 85.836,176.329 88.242 M179.835 88.108 C 183.963 89.255,183.475 93.875,179.225 93.875 C 174.854 93.875,173.414 89.276,177.419 88.110 C 178.552 87.781,178.655 87.780,179.835 88.108 M125.965 91.129 C 122.228 91.811,120.950 98.004,124.546 98.004 C 127.165 98.004,129.387 95.796,129.387 93.196 C 129.387 91.305,128.369 90.690,125.965 91.129 M128.867 91.987 C 130.141 93.998,127.415 97.712,124.654 97.724 C 121.779 97.737,122.347 93.181,125.396 91.771 C 126.377 91.317,128.527 91.450,128.867 91.987 M73.511 94.211 C 71.653 95.476,70.813 97.831,71.545 99.725 C 72.349 101.805,75.618 98.224,75.341 95.567 C 75.156 93.790,74.665 93.426,73.511 94.211 M75.155 95.836 C 75.155 97.369,73.480 99.931,72.479 99.931 C 71.812 99.931,71.486 98.539,71.836 97.189 C 72.577 94.339,75.155 93.289,75.155 95.836 M199.036 96.545 C 196.531 97.451,195.970 99.357,197.532 101.656 C 199.625 104.736,204.542 104.463,204.542 101.266 C 204.542 98.428,201.365 95.703,199.036 96.545 M201.927 97.527 C 204.214 98.804,204.963 102.168,203.167 103.096 C 200.481 104.485,197.109 102.277,197.109 99.128 C 197.109 97.091,199.640 96.250,201.927 97.527 M250.034 99.114 C 249.221 99.441,249.252 99.679,250.243 100.716 C 251.034 101.544,251.551 101.869,251.217 101.329 C 251.131 101.189,251.433 100.809,251.889 100.484 C 252.345 100.159,252.719 99.758,252.719 99.591 C 252.719 99.425,252.640 99.367,252.545 99.463 C 252.449 99.558,252.112 99.455,251.795 99.233 C 251.144 98.777,250.911 98.762,250.034 99.114 M146.731 100.240 C 143.207 101.641,142.556 106.465,145.769 107.365 C 148.874 108.234,151.841 105.781,151.634 102.518 C 151.508 100.526,148.974 99.348,146.731 100.240 M150.338 101.110 C 152.961 102.872,150.605 107.094,147.006 107.082 C 144.842 107.074,144.109 106.459,144.135 104.670 C 144.181 101.421,147.751 99.372,150.338 101.110 M94.256 103.575 C 92.528 105.092,92.028 107.254,92.955 109.206 C 94.022 111.456,97.702 108.593,97.723 105.497 C 97.741 102.761,96.173 101.891,94.256 103.575 M97.105 103.807 C 98.014 105.587,97.043 108.342,95.182 109.262 C 93.817 109.937,93.223 109.615,92.927 108.038 C 92.375 105.098,95.928 101.500,97.105 103.807 M168.095 109.290 C 165.401 110.136,164.136 113.357,165.767 115.214 C 167.927 117.674,170.958 117.674,173.118 115.214 C 175.596 112.392,171.940 108.081,168.095 109.290 M171.644 110.097 C 175.137 112.057,173.627 116.720,169.498 116.723 C 165.779 116.726,164.087 113.556,166.425 110.968 C 167.904 109.330,169.734 109.025,171.644 110.097 M39.672 111.631 C 39.494 112.540,39.228 113.802,39.082 114.437 C 38.936 115.072,38.826 116.001,38.839 116.502 C 38.851 117.003,39.158 115.864,39.520 113.971 C 39.883 112.078,40.138 110.406,40.088 110.255 C 40.038 110.103,39.851 110.723,39.672 111.631 M116.586 112.014 C 113.844 113.280,112.821 116.410,114.394 118.725 C 116.551 121.899,121.574 116.639,119.749 113.118 C 118.851 111.387,118.335 111.207,116.586 112.014 M119.308 112.980 C 120.451 115.388,119.332 118.267,116.894 119.190 C 113.769 120.375,113.182 114.458,116.240 112.593 C 117.676 111.717,118.774 111.856,119.308 112.980 M271.737 113.666 C 271.976 113.821,272.585 114.020,273.090 114.109 C 273.594 114.198,274.110 114.334,274.235 114.411 C 274.360 114.488,274.666 114.437,274.915 114.298 C 275.259 114.106,275.044 113.998,274.022 113.851 C 273.283 113.744,272.368 113.595,271.989 113.521 C 271.446 113.414,271.393 113.445,271.737 113.666 M274.742 114.673 C 274.742 114.757,275.180 115.008,275.717 115.232 C 276.253 115.456,276.621 115.753,276.535 115.893 C 276.449 116.032,276.629 116.280,276.937 116.445 C 278.098 117.066,277.507 115.928,276.301 115.222 C 275.101 114.519,274.742 114.392,274.742 114.673 M63.211 116.737 C 62.234 117.898,61.808 119.599,62.182 120.848 C 62.802 122.918,63.626 123.220,64.577 121.725 L 65.045 120.991 64.204 121.778 L 63.362 122.565 62.927 121.723 C 62.080 120.085,62.483 117.839,63.846 116.606 C 64.581 115.941,64.878 116.206,65.398 117.996 C 65.739 119.167,65.770 119.204,65.637 118.282 C 65.284 115.819,64.437 115.280,63.211 116.737 M38.426 118.432 C 38.054 120.299,37.928 133.880,38.258 136.545 C 38.958 142.197,39.003 141.557,37.721 144.167 C 35.230 149.242,33.464 153.308,33.664 153.508 C 33.718 153.562,34.051 152.896,34.405 152.027 C 34.758 151.158,36.003 148.449,37.171 146.006 L 39.295 141.564 38.911 139.536 C 38.363 136.648,38.115 125.094,38.514 121.023 C 38.827 117.822,38.787 116.623,38.426 118.432 M188.940 118.502 C 186.109 119.734,186.646 124.684,189.764 126.100 C 192.042 127.134,193.732 126.747,194.631 124.985 C 196.618 121.090,192.852 116.801,188.940 118.502 M193.216 119.413 C 195.769 121.313,195.251 125.745,192.420 126.223 C 187.958 126.977,185.332 119.645,189.712 118.662 C 191.013 118.370,192.139 118.611,193.216 119.413 M65.276 119.661 C 65.259 119.838,65.164 120.209,65.066 120.487 C 64.928 120.878,64.965 120.920,65.230 120.676 C 65.418 120.503,65.512 120.131,65.440 119.850 C 65.367 119.569,65.294 119.484,65.276 119.661 M138.197 120.901 C 134.814 121.859,133.879 126.163,136.509 128.669 C 139.261 131.291,143.782 126.370,142.075 122.610 C 141.222 120.732,140.272 120.313,138.197 120.901 M141.312 121.945 C 143.396 124.421,141.407 128.837,138.208 128.837 C 136.444 128.837,134.969 126.650,135.359 124.613 C 135.923 121.670,139.669 119.991,141.312 121.945 M256.312 121.671 C 256.547 121.809,257.414 121.990,258.239 122.075 L 259.738 122.228 258.224 121.828 C 256.413 121.349,255.655 121.287,256.312 121.671 M261.390 122.536 C 262.438 122.738,269.675 122.840,269.098 122.643 C 268.947 122.592,266.903 122.499,264.556 122.436 C 262.127 122.371,260.763 122.414,261.390 122.536 M84.719 125.465 C 82.994 127.265,82.793 129.389,84.158 131.383 C 85.055 132.693,85.586 132.683,86.807 131.331 C 89.404 128.456,87.358 122.709,84.719 125.465 M86.939 125.740 C 88.388 127.789,87.436 131.865,85.509 131.865 C 83.338 131.865,83.253 126.916,85.398 125.414 C 86.220 124.839,86.317 124.859,86.939 125.740 M210.784 128.270 C 207.486 131.921,211.512 138.244,215.040 134.953 C 217.401 132.751,216.695 128.805,213.717 127.561 C 212.329 126.981,211.843 127.098,210.784 128.270 M213.789 128.024 C 216.641 129.090,216.826 133.506,214.094 135.296 C 210.810 137.448,208.239 130.163,211.481 127.892 C 212.068 127.481,212.385 127.500,213.789 128.024 M158.706 130.161 C 156.204 131.765,155.445 134.150,156.719 136.399 C 159.480 141.274,166.413 137.695,164.636 132.313 C 163.919 130.138,160.613 128.939,158.706 130.161 M163.343 131.118 C 166.740 134.322,162.583 140.330,158.635 137.923 C 155.008 135.712,156.533 130.213,160.772 130.213 C 162.216 130.213,162.483 130.308,163.343 131.118 M106.247 134.261 C 104.067 136.095,104.067 139.472,106.247 141.307 C 107.595 142.441,108.958 141.856,110.084 139.660 C 111.623 136.658,108.545 132.327,106.247 134.261 M109.582 135.750 C 111.006 138.540,108.898 142.815,106.848 141.297 C 104.600 139.632,104.267 136.886,106.075 134.932 C 107.384 133.517,108.586 133.797,109.582 135.750 M180.611 139.230 C 178.208 140.455,177.081 143.782,178.372 145.839 C 180.699 149.546,186.489 147.728,186.489 143.290 C 186.489 140.059,183.302 137.857,180.611 139.230 M184.112 139.770 C 187.288 141.829,186.468 146.726,182.827 147.454 C 177.890 148.441,176.320 141.514,181.005 139.414 C 182.221 138.869,182.830 138.939,184.112 139.770 M127.473 143.321 C 124.534 145.795,125.787 150.720,129.510 151.324 C 130.842 151.540,132.709 149.777,132.685 148.328 C 132.682 148.131,132.444 148.487,132.157 149.118 C 130.365 153.065,125.052 149.885,126.327 145.629 C 126.736 144.263,128.376 142.784,129.204 143.034 C 130.474 143.418,131.562 144.314,132.115 145.430 C 132.431 146.070,132.691 146.432,132.691 146.235 C 132.692 143.910,129.135 141.923,127.473 143.321 M75.040 147.621 C 73.740 149.604,73.933 152.066,75.508 153.606 C 76.772 154.841,77.465 154.561,78.144 152.540 C 79.106 149.675,76.451 145.467,75.040 147.621 M76.726 147.901 C 78.211 149.525,78.470 150.889,77.640 152.719 C 76.631 154.942,74.603 153.274,74.605 150.223 C 74.607 148.071,75.744 146.826,76.726 147.901 M203.195 148.681 C 202.237 149.064,202.635 149.257,203.617 148.886 C 206.226 147.902,208.332 151.458,206.702 154.096 C 204.910 156.995,201.742 157.309,200.791 154.681 C 200.588 154.118,200.447 153.956,200.434 154.269 C 200.329 156.859,203.505 157.680,205.852 155.671 C 209.369 152.661,207.241 147.063,203.195 148.681 M293.852 149.582 C 293.756 149.831,293.563 150.034,293.423 150.034 C 293.282 150.034,293.305 149.776,293.474 149.460 C 293.825 148.805,294.114 148.899,293.852 149.582 M233.709 152.266 C 232.941 153.796,232.365 155.100,232.429 155.164 C 232.494 155.228,233.084 154.193,233.741 152.864 C 235.213 149.886,235.391 149.484,235.231 149.484 C 235.162 149.484,234.477 150.736,233.709 152.266 M149.621 152.174 C 146.539 152.579,146.120 157.846,149.027 159.643 C 151.188 160.978,154.122 160.496,154.880 158.681 C 156.306 155.270,153.403 151.678,149.621 152.174 M152.024 152.665 C 154.795 153.325,155.922 158.338,153.572 159.553 C 151.486 160.632,148.876 159.761,147.852 157.645 C 146.532 154.920,148.310 151.816,150.860 152.392 C 151.087 152.444,151.611 152.566,152.024 152.665 M32.547 156.153 C 31.664 158.541,31.145 160.313,31.637 159.257 C 32.185 158.081,33.593 154.079,33.493 153.980 C 33.436 153.922,33.010 154.900,32.547 156.153 M280.248 155.637 C 280.248 155.807,278.598 157.467,278.429 157.467 C 278.199 157.467,279.791 155.584,280.041 155.560 C 280.155 155.549,280.248 155.584,280.248 155.637 M96.548 156.320 C 94.777 158.353,95.269 161.868,97.520 163.257 C 99.346 164.384,100.800 163.131,100.718 160.500 L 100.680 159.257 100.509 160.649 C 100.130 163.748,98.714 164.246,96.628 162.014 C 95.244 160.533,95.857 156.366,97.459 156.366 C 98.098 156.366,99.330 157.371,99.961 158.406 C 100.246 158.874,100.480 159.129,100.481 158.974 C 100.486 157.534,97.340 155.410,96.548 156.320 M289.583 156.892 C 288.768 157.993,288.535 157.761,289.332 156.641 C 289.668 156.170,290.002 155.843,290.075 155.916 C 290.147 155.988,289.926 156.427,289.583 156.892 M280.460 157.140 C 280.520 157.320,280.373 157.467,280.133 157.467 C 279.893 157.467,279.697 157.271,279.697 157.031 C 279.697 156.545,280.290 156.630,280.460 157.140 M279.835 158.312 C 279.835 158.525,279.618 158.740,279.353 158.791 C 278.879 158.883,278.682 158.299,279.061 157.920 C 279.349 157.632,279.835 157.878,279.835 158.312 M288.782 158.432 C 288.782 158.625,288.565 158.765,288.300 158.744 C 287.942 158.716,287.838 158.882,287.895 159.394 L 287.971 160.083 287.538 159.468 C 286.975 158.668,287.402 157.721,288.228 157.937 C 288.532 158.017,288.782 158.240,288.782 158.432 M285.478 160.083 C 285.478 160.554,284.719 160.830,284.573 160.411 C 284.386 159.875,284.669 159.418,285.088 159.579 C 285.303 159.661,285.478 159.888,285.478 160.083 M276.818 159.926 C 276.630 160.230,277.065 160.559,277.319 160.305 C 277.581 160.043,277.532 159.670,277.236 159.670 C 277.093 159.670,276.905 159.785,276.818 159.926 M30.738 161.370 C 29.901 164.282,29.181 167.215,29.201 167.636 C 29.212 167.873,29.518 166.951,29.881 165.588 C 30.244 164.226,30.740 162.450,30.984 161.641 C 31.227 160.833,31.366 160.112,31.293 160.038 C 31.219 159.964,30.969 160.564,30.738 161.370 M284.022 162.112 C 283.989 162.556,283.831 162.852,283.661 162.786 C 283.319 162.655,283.489 161.321,283.848 161.321 C 283.975 161.321,284.054 161.677,284.022 162.112 M170.656 162.235 C 167.399 163.950,167.796 167.817,171.369 169.182 C 174.870 170.519,178.781 166.393,176.736 163.521 C 175.454 161.721,172.728 161.144,170.656 162.235 M174.119 162.180 C 175.443 162.547,177.013 164.115,177.013 165.068 C 177.013 168.957,171.205 170.478,169.215 167.109 C 167.553 164.297,170.624 161.210,174.119 162.180 M274.375 163.157 C 274.112 163.420,274.149 163.799,274.437 163.799 C 274.572 163.799,274.754 163.613,274.841 163.386 C 275.002 162.966,274.709 162.822,274.375 163.157 M278.321 165.175 C 278.094 165.322,277.970 165.453,278.045 165.467 C 279.025 165.641,280.283 165.617,280.403 165.423 C 280.487 165.287,280.455 165.165,280.333 165.153 C 280.210 165.140,279.800 165.080,279.422 165.019 C 279.043 164.958,278.548 165.029,278.321 165.175 M117.144 166.263 C 115.678 169.098,117.385 172.299,120.739 173.004 C 122.804 173.438,123.951 169.863,122.454 167.660 C 120.921 165.403,117.988 164.631,117.144 166.263 M121.070 166.510 C 123.317 168.110,123.361 172.608,121.129 172.608 C 118.158 172.608,116.146 169.396,117.427 166.698 C 118.002 165.487,119.522 165.408,121.070 166.510 M280.532 167.138 C 280.541 167.536,281.167 168.479,281.422 168.479 C 281.694 168.479,281.298 167.403,280.906 167.078 C 280.610 166.832,280.525 166.846,280.532 167.138 M28.834 168.756 C 28.744 169.134,28.602 170.062,28.520 170.819 C 28.381 172.090,28.401 172.059,28.779 170.417 C 29.004 169.438,29.145 168.510,29.093 168.354 C 29.041 168.198,28.925 168.379,28.834 168.756 M47.368 171.509 C 43.298 175.677,37.027 188.174,37.186 191.798 C 37.211 192.358,37.292 192.141,38.397 188.575 C 40.689 181.173,44.803 173.931,48.465 170.850 C 49.662 169.842,49.593 169.793,51.859 173.254 C 60.819 186.938,72.942 199.058,85.449 206.833 C 88.806 208.921,97.283 213.365,97.858 213.339 C 98.014 213.332,96.215 212.358,93.859 211.175 C 77.452 202.934,63.572 190.327,52.465 173.579 C 51.308 171.833,50.290 170.220,50.203 169.993 C 49.908 169.226,49.257 169.574,47.368 171.509 M192.938 171.787 C 189.304 173.707,190.016 178.390,193.941 178.390 C 195.816 178.390,198.217 176.671,198.208 175.335 C 198.207 175.123,197.905 175.450,197.538 176.062 C 195.893 178.805,191.057 178.677,190.844 175.885 C 190.609 172.797,195.416 170.165,197.631 172.169 C 197.950 172.458,198.211 172.554,198.211 172.383 C 198.211 171.291,194.640 170.888,192.938 171.787 M28.001 173.297 C 27.896 173.902,27.824 174.831,27.841 175.361 C 27.863 176.050,27.941 175.854,28.116 174.673 C 28.393 172.801,28.294 171.608,28.001 173.297 M198.280 173.847 C 198.283 174.453,198.339 174.668,198.405 174.326 C 198.471 173.983,198.469 173.488,198.400 173.225 C 198.331 172.961,198.277 173.242,198.280 173.847 M138.816 175.358 C 137.045 176.438,137.760 179.764,140.102 181.342 C 141.780 182.473,145.158 181.885,145.531 180.397 C 146.395 176.956,141.822 173.525,138.816 175.358 M142.106 175.372 C 143.311 175.707,144.936 177.466,145.183 178.704 C 145.893 182.251,140.281 182.836,138.644 179.386 C 137.239 176.425,138.912 174.485,142.106 175.372 M27.433 178.321 C 27.215 180.635,27.248 187.375,27.488 189.401 C 27.586 190.234,27.667 187.663,27.667 183.689 C 27.667 179.714,27.654 176.462,27.638 176.462 C 27.622 176.462,27.530 177.299,27.433 178.321 M86.682 179.120 C 85.470 180.580,86.661 183.897,88.808 185.039 C 90.196 185.777,90.761 185.593,91.000 184.323 C 91.544 181.419,88.159 177.340,86.682 179.120 M88.368 179.353 C 90.225 180.313,91.505 183.898,90.389 185.014 C 89.040 186.363,86.102 182.325,86.732 179.988 C 87.045 178.823,87.216 178.757,88.368 179.353 M315.014 185.447 C 322.043 188.452,321.660 187.953,319.111 190.778 C 313.591 196.894,312.050 198.040,310.504 197.173 C 309.988 196.885,309.404 196.703,309.206 196.769 C 309.008 196.836,308.614 196.680,308.329 196.422 C 308.044 196.165,307.694 196.027,307.550 196.116 C 307.406 196.205,307.131 196.087,306.938 195.855 C 306.745 195.623,306.436 195.491,306.250 195.562 C 306.065 195.633,305.658 195.513,305.347 195.295 C 304.844 194.943,304.749 194.953,304.498 195.385 C 304.032 196.185,304.158 195.647,304.907 193.640 C 305.296 192.596,305.720 191.432,305.849 191.053 C 306.092 190.341,306.522 189.215,308.033 185.341 C 309.102 182.599,308.322 182.587,315.014 185.447 M161.654 184.680 C 161.455 184.806,161.952 184.852,162.779 184.783 C 163.812 184.698,164.523 184.797,165.130 185.111 C 165.609 185.359,166.001 185.499,166.001 185.424 C 166.001 184.734,162.510 184.137,161.654 184.680 M159.910 185.774 C 157.692 187.755,161.106 191.532,164.533 190.889 C 165.648 190.679,167.654 189.039,167.652 188.337 C 167.651 188.067,167.436 188.240,167.114 188.768 C 165.529 191.367,161.247 191.061,159.781 188.245 C 159.205 187.137,159.303 186.642,160.270 185.778 C 160.751 185.348,161.063 184.997,160.962 184.997 C 160.862 184.997,160.388 185.346,159.910 185.774 M166.277 185.673 C 166.277 185.742,166.586 186.254,166.965 186.812 C 167.796 188.037,167.885 187.777,167.080 186.474 C 166.556 185.627,166.277 185.348,166.277 185.673 M107.905 188.449 C 107.024 189.511,107.750 192.377,109.185 193.506 C 112.062 195.769,114.662 193.963,113.034 190.833 C 111.976 188.799,108.828 187.337,107.905 188.449 M111.080 189.100 C 112.252 189.766,113.167 191.480,113.079 192.842 L 113.008 193.944 111.573 193.932 C 109.369 193.915,107.915 192.292,107.915 189.851 C 107.915 188.184,109.013 187.923,111.080 189.100 M329.808 191.775 C 332.529 192.929,334.756 194.021,334.756 194.203 C 334.756 195.422,325.651 204.380,325.448 203.360 C 325.396 203.098,324.543 202.664,323.246 202.238 C 318.666 200.737,318.513 200.665,318.513 200.001 C 318.513 199.122,317.791 198.553,317.568 199.255 C 317.476 199.543,317.086 199.922,316.701 200.098 C 315.813 200.503,315.943 200.265,317.771 198.131 C 319.472 196.147,322.493 192.082,323.286 190.711 C 324.075 189.347,324.088 189.349,329.808 191.775 M27.846 191.792 C 27.823 192.274,27.990 193.575,28.217 194.683 C 28.823 197.645,28.920 198.013,29.057 197.876 C 29.126 197.807,28.942 196.585,28.648 195.159 C 28.355 193.733,28.063 192.195,28.001 191.741 L 27.887 190.915 27.846 191.792 M36.783 193.187 C 36.436 194.935,36.330 196.143,36.571 195.595 C 36.862 194.933,37.253 192.429,37.066 192.429 C 36.993 192.429,36.865 192.770,36.783 193.187 M343.294 197.508 C 349.635 200.237,349.400 199.670,345.814 203.598 C 342.249 207.502,340.027 209.459,339.721 208.963 C 339.606 208.777,339.402 208.629,339.267 208.635 C 338.728 208.657,336.664 208.038,336.524 207.812 C 336.442 207.679,336.150 207.571,335.874 207.571 C 335.599 207.571,335.219 207.385,335.031 207.158 C 334.842 206.930,334.466 206.745,334.194 206.745 C 333.922 206.745,333.101 206.477,332.370 206.149 C 331.638 205.822,330.876 205.582,330.677 205.615 C 330.180 205.699,330.514 205.183,332.707 202.478 C 333.689 201.266,335.236 199.191,336.145 197.866 C 338.130 194.974,337.481 195.007,343.294 197.508 M35.990 197.247 C 35.882 197.853,35.808 198.844,35.825 199.449 C 35.851 200.398,35.889 200.321,36.101 198.899 C 36.384 197.003,36.288 195.576,35.990 197.247 M303.773 197.729 C 303.649 198.799,303.682 199.067,303.901 198.761 C 304.151 198.415,304.237 198.409,304.443 198.728 C 304.577 198.936,304.822 199.023,304.988 198.921 C 305.337 198.705,306.402 199.217,306.841 199.812 C 307.007 200.037,307.277 200.139,307.441 200.038 C 307.605 199.936,307.820 199.984,307.919 200.144 C 308.018 200.304,308.367 200.355,308.695 200.258 C 309.485 200.022,305.425 203.832,302.654 205.926 C 301.255 206.984,300.218 207.568,299.741 207.569 C 298.423 207.572,298.264 208.057,302.303 199.695 C 303.043 198.164,303.648 196.770,303.648 196.598 C 303.648 196.425,303.714 196.284,303.795 196.284 C 303.876 196.284,303.866 196.934,303.773 197.729 M129.456 197.944 C 129.116 198.081,128.837 198.328,128.837 198.493 C 128.837 198.670,129.086 198.618,129.449 198.364 C 131.720 196.773,137.223 200.679,135.350 202.551 C 133.805 204.097,129.742 202.625,129.228 200.333 C 129.119 199.847,128.978 199.599,128.914 199.781 C 128.052 202.267,134.878 204.928,135.821 202.473 C 136.781 199.969,132.318 196.793,129.456 197.944 M29.202 198.486 C 29.176 199.090,29.749 201.038,29.906 200.881 C 29.980 200.807,29.856 200.145,29.630 199.410 C 29.404 198.674,29.211 198.259,29.202 198.486 M35.650 205.231 C 35.709 208.809,35.832 209.975,36.302 211.444 C 38.854 219.418,48.277 224.260,62.767 225.043 C 64.508 225.137,66.924 225.267,68.135 225.332 C 70.244 225.445,85.106 224.761,86.286 224.496 C 86.599 224.426,88.279 224.243,90.021 224.088 C 94.441 223.697,105.324 222.364,114.109 221.139 C 118.522 220.523,121.377 220.402,122.119 220.799 C 122.475 220.989,122.959 221.042,123.244 220.921 C 123.882 220.650,122.901 220.304,121.377 220.261 C 120.833 220.246,120.028 220.061,119.588 219.850 C 119.148 219.639,118.169 219.394,117.412 219.305 C 116.480 219.196,116.213 219.224,116.586 219.394 C 116.889 219.532,117.436 219.653,117.802 219.664 C 119.681 219.719,117.575 220.151,111.631 220.930 C 107.262 221.503,105.090 221.792,101.440 222.283 C 93.367 223.371,83.424 224.311,76.394 224.653 C 53.444 225.768,39.874 221.380,36.759 211.838 C 36.068 209.722,35.973 209.056,35.776 204.955 L 35.577 200.826 35.650 205.231 M30.026 201.463 C 30.001 201.938,32.199 207.353,32.561 207.708 C 32.918 208.059,32.978 208.218,30.271 201.652 C 30.146 201.349,30.036 201.264,30.026 201.463 M354.301 201.842 C 355.160 202.005,357.216 202.062,359.050 201.973 C 362.978 201.783,362.885 201.350,360.115 206.922 C 357.700 211.779,353.476 216.736,353.476 214.712 C 353.476 214.552,353.366 214.488,353.231 214.571 C 353.097 214.654,352.830 214.532,352.637 214.300 C 352.444 214.067,352.136 213.935,351.953 214.005 C 351.770 214.075,351.255 213.911,350.808 213.639 C 350.362 213.367,349.695 213.058,349.327 212.950 C 348.379 212.674,345.718 211.354,345.266 210.935 C 344.948 210.640,345.079 210.337,346.084 209.056 C 346.743 208.216,348.176 206.268,349.270 204.728 C 351.804 201.159,351.795 201.168,352.334 201.378 C 352.583 201.475,353.469 201.684,354.301 201.842 M314.659 202.891 C 314.659 203.286,314.843 203.441,315.309 203.441 C 315.667 203.441,316.379 203.725,316.892 204.072 C 317.659 204.591,317.980 204.659,318.696 204.452 C 319.418 204.244,319.674 204.301,320.193 204.785 C 320.781 205.332,321.118 205.479,321.610 205.401 C 321.724 205.383,321.817 205.554,321.817 205.781 C 321.817 206.310,322.090 206.303,322.875 205.753 C 324.057 204.925,323.746 205.549,322.298 206.909 C 318.729 210.265,314.478 213.627,313.805 213.627 C 313.349 213.627,304.458 209.868,304.124 209.534 C 304.000 209.409,305.111 208.493,306.595 207.496 C 308.078 206.500,310.282 204.936,311.493 204.020 C 313.817 202.263,314.659 201.962,314.659 202.891 M330.590 209.352 C 331.067 209.457,331.385 209.659,331.296 209.802 C 331.208 209.945,331.238 210.038,331.363 210.009 C 331.827 209.900,333.807 210.405,334.205 210.734 C 334.789 211.216,336.236 211.541,335.984 211.133 C 335.840 210.900,335.936 210.897,336.356 211.122 C 337.059 211.498,337.317 211.508,337.096 211.149 C 337.002 210.998,337.049 210.874,337.201 210.874 C 338.366 210.874,335.170 214.220,330.902 217.468 C 327.517 220.044,328.371 220.042,322.371 217.487 C 317.127 215.254,317.292 215.490,319.828 213.837 C 322.150 212.323,325.686 209.728,326.767 208.746 C 327.182 208.369,327.669 208.177,328.006 208.258 C 328.312 208.331,328.406 208.320,328.216 208.233 C 328.026 208.145,327.939 207.963,328.023 207.827 C 328.107 207.691,328.524 207.935,328.949 208.370 C 329.374 208.805,330.113 209.247,330.590 209.352 M342.303 214.002 C 342.201 214.267,342.495 214.431,343.300 214.560 C 343.928 214.661,344.921 214.987,345.506 215.286 C 346.092 215.585,346.858 215.829,347.209 215.829 C 347.560 215.829,348.154 216.044,348.528 216.306 C 348.902 216.568,349.240 216.754,349.277 216.719 C 349.315 216.684,349.315 216.739,349.277 216.842 C 349.105 217.310,350.865 217.470,351.202 217.017 C 351.389 216.764,351.633 216.647,351.742 216.757 C 352.182 217.197,343.322 224.996,341.968 225.361 C 341.350 225.527,332.191 221.862,331.851 221.312 C 331.772 221.185,332.614 220.481,333.721 219.748 C 335.634 218.481,336.612 217.766,340.378 214.878 C 342.071 213.580,342.548 213.363,342.303 214.002 M101.171 214.688 C 101.777 214.969,102.583 215.279,102.961 215.377 C 103.338 215.475,103.152 215.325,102.545 215.044 C 101.939 214.763,101.134 214.453,100.756 214.355 C 100.378 214.257,100.565 214.407,101.171 214.688 M104.061 215.829 C 104.288 215.976,104.659 216.096,104.886 216.096 C 105.253 216.096,105.253 216.067,104.886 215.829 C 104.659 215.683,104.288 215.562,104.061 215.562 C 103.694 215.562,103.694 215.592,104.061 215.829 M106.125 216.516 C 107.054 216.954,108.105 217.096,107.364 216.684 C 107.137 216.558,106.579 216.381,106.125 216.291 L 105.299 216.127 106.125 216.516 M108.190 217.183 C 108.417 217.312,109.036 217.493,109.566 217.585 L 110.530 217.752 109.566 217.362 C 108.448 216.910,107.493 216.785,108.190 217.183 M111.081 218.032 C 111.383 218.162,111.879 218.265,112.182 218.260 C 112.624 218.254,112.597 218.209,112.044 218.032 C 111.103 217.730,110.379 217.730,111.081 218.032 M113.833 218.728 C 114.439 218.927,115.182 219.089,115.485 219.087 C 115.788 219.085,115.416 218.911,114.659 218.701 C 112.937 218.221,112.355 218.240,113.833 218.728 M131.662 219.327 C 131.324 219.392,130.704 219.394,130.286 219.330 C 129.867 219.267,130.145 219.214,130.902 219.212 C 131.659 219.209,132.001 219.261,131.662 219.327 M130.902 220.234 C 130.995 220.385,130.824 220.509,130.521 220.509 C 130.218 220.509,129.894 220.385,129.800 220.234 C 129.707 220.083,129.878 219.959,130.181 219.959 C 130.484 219.959,130.808 220.083,130.902 220.234 M351.556 225.946 C 348.758 233.082,349.016 232.747,347.734 230.902 C 347.287 230.258,346.476 229.305,345.931 228.783 C 344.609 227.515,344.634 227.453,347.083 225.946 C 348.252 225.226,350.014 224.023,350.998 223.271 C 351.982 222.520,352.869 221.901,352.968 221.896 C 353.068 221.890,352.432 223.713,351.556 225.946 M131.590 232.347 C 131.590 232.498,131.435 232.624,131.246 232.626 C 131.056 232.628,130.623 232.704,130.282 232.796 C 129.929 232.890,129.663 232.838,129.663 232.673 C 129.663 232.417,130.210 232.222,131.246 232.109 C 131.435 232.088,131.590 232.195,131.590 232.347 " stroke="none" fill="#8abaeb" fill-rule="evenodd"></path></g></svg>